<mxfile host="65bd71144e">
    <diagram id="dN-JMe10Lv6DrVuhfne7" name="Step 1 - Define the purpose of the DB">
        <mxGraphModel dx="1114" dy="460" grid="1" gridSize="10" guides="1" tooltips="1" connect="1" arrows="1" fold="1" page="1" pageScale="1" pageWidth="827" pageHeight="1169" math="0" shadow="0">
            <root>
                <mxCell id="0"/>
                <mxCell id="1" parent="0"/>
                <mxCell id="2" value="" style="shape=actor;whiteSpace=wrap;html=1;" parent="1" vertex="1">
                    <mxGeometry x="401.75" y="480" width="40" height="60" as="geometry"/>
                </mxCell>
                <mxCell id="3" value="Author" style="ellipse;shape=cloud;whiteSpace=wrap;html=1;" parent="1" vertex="1">
                    <mxGeometry x="180" y="280" width="120" height="80" as="geometry"/>
                </mxCell>
                <mxCell id="4" value="Book (title)" style="ellipse;shape=cloud;whiteSpace=wrap;html=1;" parent="1" vertex="1">
                    <mxGeometry x="130" y="390" width="120" height="80" as="geometry"/>
                </mxCell>
                <mxCell id="5" value="Room" style="ellipse;shape=cloud;whiteSpace=wrap;html=1;" parent="1" vertex="1">
                    <mxGeometry x="353.5" y="220" width="120" height="80" as="geometry"/>
                </mxCell>
                <mxCell id="6" value="Reading status" style="ellipse;shape=cloud;whiteSpace=wrap;html=1;" parent="1" vertex="1">
                    <mxGeometry x="520" y="280" width="150" height="80" as="geometry"/>
                </mxCell>
                <mxCell id="rudQ-8ullRoLDf0ct9yY-6" value="Description" style="ellipse;shape=cloud;whiteSpace=wrap;html=1;" parent="1" vertex="1">
                    <mxGeometry x="590" y="400" width="120" height="80" as="geometry"/>
                </mxCell>
                <mxCell id="rudQ-8ullRoLDf0ct9yY-7" value="Owner of the book" style="ellipse;shape=cloud;whiteSpace=wrap;html=1;" parent="1" vertex="1">
                    <mxGeometry x="320" y="340" width="170" height="90" as="geometry"/>
                </mxCell>
            </root>
        </mxGraphModel>
    </diagram>
    <diagram id="K7CPMNRlifHQC8CAAzPp" name="Step 2 - The ERM">
        <mxGraphModel dx="1615" dy="1836" grid="1" gridSize="10" guides="1" tooltips="1" connect="1" arrows="1" fold="1" page="1" pageScale="1" pageWidth="827" pageHeight="1169" math="0" shadow="0">
            <root>
                <mxCell id="cYiUQkpwhXSrUYd20Ewe-0"/>
                <mxCell id="cYiUQkpwhXSrUYd20Ewe-1" parent="cYiUQkpwhXSrUYd20Ewe-0"/>
                <mxCell id="FWKl5JYXBAnCbbzAL9v7-0" value="Book (title)" style="whiteSpace=wrap;html=1;align=center;" parent="cYiUQkpwhXSrUYd20Ewe-1" vertex="1">
                    <mxGeometry x="384" y="290" width="100" height="40" as="geometry"/>
                </mxCell>
                <mxCell id="wEJNBm4grBwEPvbMczcW-1" value="" style="edgeStyle=none;html=1;endArrow=ERmany;endFill=0;startArrow=none;startFill=0;exitX=0;exitY=0.5;exitDx=0;exitDy=0;" parent="cYiUQkpwhXSrUYd20Ewe-1" source="wEJNBm4grBwEPvbMczcW-2" target="FWKl5JYXBAnCbbzAL9v7-0" edge="1">
                    <mxGeometry relative="1" as="geometry">
                        <mxPoint x="524" y="310" as="sourcePoint"/>
                    </mxGeometry>
                </mxCell>
                <mxCell id="wEJNBm4grBwEPvbMczcW-2" value="written by" style="shape=rhombus;perimeter=rhombusPerimeter;whiteSpace=wrap;html=1;align=center;" parent="cYiUQkpwhXSrUYd20Ewe-1" vertex="1">
                    <mxGeometry x="710" y="280" width="120" height="60" as="geometry"/>
                </mxCell>
                <mxCell id="wEJNBm4grBwEPvbMczcW-4" value="" style="edgeStyle=none;html=1;endArrow=none;endFill=0;startArrow=ERone;startFill=0;" parent="cYiUQkpwhXSrUYd20Ewe-1" source="wEJNBm4grBwEPvbMczcW-3" target="wEJNBm4grBwEPvbMczcW-2" edge="1">
                    <mxGeometry relative="1" as="geometry"/>
                </mxCell>
                <mxCell id="wEJNBm4grBwEPvbMczcW-3" value="Author" style="whiteSpace=wrap;html=1;align=center;" parent="cYiUQkpwhXSrUYd20Ewe-1" vertex="1">
                    <mxGeometry x="870" y="290" width="100" height="40" as="geometry"/>
                </mxCell>
                <mxCell id="wEJNBm4grBwEPvbMczcW-6" value="" style="edgeStyle=none;html=1;endArrow=ERmany;endFill=0;" parent="cYiUQkpwhXSrUYd20Ewe-1" source="wEJNBm4grBwEPvbMczcW-5" target="FWKl5JYXBAnCbbzAL9v7-0" edge="1">
                    <mxGeometry relative="1" as="geometry"/>
                </mxCell>
                <mxCell id="wEJNBm4grBwEPvbMczcW-5" value="owned by" style="shape=rhombus;perimeter=rhombusPerimeter;whiteSpace=wrap;html=1;align=center;" parent="cYiUQkpwhXSrUYd20Ewe-1" vertex="1">
                    <mxGeometry x="374" y="520" width="120" height="60" as="geometry"/>
                </mxCell>
                <mxCell id="wEJNBm4grBwEPvbMczcW-8" value="" style="edgeStyle=none;html=1;endArrow=none;endFill=0;startArrow=ERone;startFill=0;" parent="cYiUQkpwhXSrUYd20Ewe-1" source="wEJNBm4grBwEPvbMczcW-7" target="wEJNBm4grBwEPvbMczcW-5" edge="1">
                    <mxGeometry relative="1" as="geometry"/>
                </mxCell>
                <mxCell id="wEJNBm4grBwEPvbMczcW-7" value="Book Owner" style="whiteSpace=wrap;html=1;align=center;" parent="cYiUQkpwhXSrUYd20Ewe-1" vertex="1">
                    <mxGeometry x="384" y="630" width="100" height="40" as="geometry"/>
                </mxCell>
                <mxCell id="wEJNBm4grBwEPvbMczcW-10" value="" style="edgeStyle=none;html=1;endArrow=none;endFill=0;entryX=0;entryY=0.5;entryDx=0;entryDy=0;exitX=1;exitY=0.5;exitDx=0;exitDy=0;" parent="cYiUQkpwhXSrUYd20Ewe-1" source="wEJNBm4grBwEPvbMczcW-9" target="wEJNBm4grBwEPvbMczcW-5" edge="1">
                    <mxGeometry relative="1" as="geometry">
                        <Array as="points"/>
                    </mxGeometry>
                </mxCell>
                <mxCell id="PRoKCBygEGugXzvHraO0-2" value="" style="edgeStyle=none;html=1;startArrow=none;startFill=0;endArrow=none;endFill=0;" parent="cYiUQkpwhXSrUYd20Ewe-1" source="wEJNBm4grBwEPvbMczcW-9" target="PRoKCBygEGugXzvHraO0-0" edge="1">
                    <mxGeometry relative="1" as="geometry"/>
                </mxCell>
                <mxCell id="wEJNBm4grBwEPvbMczcW-9" value="Borrow period" style="whiteSpace=wrap;html=1;align=center;" parent="cYiUQkpwhXSrUYd20Ewe-1" vertex="1">
                    <mxGeometry x="204" y="530" width="100" height="40" as="geometry"/>
                </mxCell>
                <mxCell id="dIzMhW4nH7jWB1z9T61W-2" value="" style="edgeStyle=none;html=1;startArrow=none;startFill=0;endArrow=ERone;endFill=0;" parent="cYiUQkpwhXSrUYd20Ewe-1" source="dIzMhW4nH7jWB1z9T61W-1" target="FWKl5JYXBAnCbbzAL9v7-0" edge="1">
                    <mxGeometry relative="1" as="geometry"/>
                </mxCell>
                <mxCell id="dIzMhW4nH7jWB1z9T61W-4" value="" style="edgeStyle=none;html=1;startArrow=none;startFill=0;endArrow=ERone;endFill=0;" parent="cYiUQkpwhXSrUYd20Ewe-1" source="dIzMhW4nH7jWB1z9T61W-1" target="dIzMhW4nH7jWB1z9T61W-5" edge="1">
                    <mxGeometry relative="1" as="geometry">
                        <mxPoint x="434" y="10" as="targetPoint"/>
                    </mxGeometry>
                </mxCell>
                <mxCell id="dIzMhW4nH7jWB1z9T61W-1" value="stands in" style="shape=rhombus;perimeter=rhombusPerimeter;whiteSpace=wrap;html=1;align=center;" parent="cYiUQkpwhXSrUYd20Ewe-1" vertex="1">
                    <mxGeometry x="374" y="50" width="120" height="60" as="geometry"/>
                </mxCell>
                <mxCell id="dIzMhW4nH7jWB1z9T61W-5" value="Room" style="whiteSpace=wrap;html=1;align=center;" parent="cYiUQkpwhXSrUYd20Ewe-1" vertex="1">
                    <mxGeometry x="384" y="-40" width="100" height="40" as="geometry"/>
                </mxCell>
                <mxCell id="VGvIaX08fntwdcF2sTLk-1" value="" style="edgeStyle=none;html=1;startArrow=none;startFill=0;endArrow=ERmany;endFill=0;" parent="cYiUQkpwhXSrUYd20Ewe-1" source="VGvIaX08fntwdcF2sTLk-0" target="FWKl5JYXBAnCbbzAL9v7-0" edge="1">
                    <mxGeometry relative="1" as="geometry"/>
                </mxCell>
                <mxCell id="VGvIaX08fntwdcF2sTLk-3" value="" style="edgeStyle=none;html=1;startArrow=none;startFill=0;endArrow=ERmany;endFill=0;" parent="cYiUQkpwhXSrUYd20Ewe-1" source="VGvIaX08fntwdcF2sTLk-0" target="VGvIaX08fntwdcF2sTLk-2" edge="1">
                    <mxGeometry relative="1" as="geometry"/>
                </mxCell>
                <mxCell id="VGvIaX08fntwdcF2sTLk-0" value="done reading" style="shape=rhombus;perimeter=rhombusPerimeter;whiteSpace=wrap;html=1;align=center;" parent="cYiUQkpwhXSrUYd20Ewe-1" vertex="1">
                    <mxGeometry x="194" y="280" width="120" height="60" as="geometry"/>
                </mxCell>
                <mxCell id="VGvIaX08fntwdcF2sTLk-2" value="Family member" style="whiteSpace=wrap;html=1;align=center;" parent="cYiUQkpwhXSrUYd20Ewe-1" vertex="1">
                    <mxGeometry x="44" y="290" width="100" height="40" as="geometry"/>
                </mxCell>
                <mxCell id="qmyJ6gA9JJhbhDuu2Kem-1" value="" style="edgeStyle=none;html=1;startArrow=none;startFill=0;endArrow=none;endFill=0;" parent="cYiUQkpwhXSrUYd20Ewe-1" source="qmyJ6gA9JJhbhDuu2Kem-0" target="VGvIaX08fntwdcF2sTLk-0" edge="1">
                    <mxGeometry relative="1" as="geometry"/>
                </mxCell>
                <mxCell id="qmyJ6gA9JJhbhDuu2Kem-0" value="Reading status" style="whiteSpace=wrap;html=1;align=center;" parent="cYiUQkpwhXSrUYd20Ewe-1" vertex="1">
                    <mxGeometry x="204" y="200" width="100" height="40" as="geometry"/>
                </mxCell>
                <mxCell id="rrx19ZrYLoPpnvyEtpzq-1" style="edgeStyle=none;html=1;exitX=1;exitY=1;exitDx=0;exitDy=0;startArrow=none;startFill=0;endArrow=none;endFill=0;" parent="cYiUQkpwhXSrUYd20Ewe-1" source="rrx19ZrYLoPpnvyEtpzq-0" target="dIzMhW4nH7jWB1z9T61W-5" edge="1">
                    <mxGeometry relative="1" as="geometry"/>
                </mxCell>
                <mxCell id="rrx19ZrYLoPpnvyEtpzq-0" value="&lt;u&gt;Room_ID&lt;/u&gt;" style="ellipse;whiteSpace=wrap;html=1;align=center;" parent="cYiUQkpwhXSrUYd20Ewe-1" vertex="1">
                    <mxGeometry x="270" y="-100" width="100" height="40" as="geometry"/>
                </mxCell>
                <mxCell id="rrx19ZrYLoPpnvyEtpzq-3" style="edgeStyle=none;html=1;exitX=0;exitY=1;exitDx=0;exitDy=0;entryX=0.83;entryY=0.007;entryDx=0;entryDy=0;entryPerimeter=0;startArrow=none;startFill=0;endArrow=none;endFill=0;" parent="cYiUQkpwhXSrUYd20Ewe-1" source="rrx19ZrYLoPpnvyEtpzq-2" target="dIzMhW4nH7jWB1z9T61W-5" edge="1">
                    <mxGeometry relative="1" as="geometry"/>
                </mxCell>
                <mxCell id="rrx19ZrYLoPpnvyEtpzq-2" value="Floor" style="ellipse;whiteSpace=wrap;html=1;align=center;" parent="cYiUQkpwhXSrUYd20Ewe-1" vertex="1">
                    <mxGeometry x="470" y="-100" width="100" height="40" as="geometry"/>
                </mxCell>
                <mxCell id="vSzgxxjgGDa7kyAaiTMG-1" style="edgeStyle=none;html=1;exitX=0.5;exitY=1;exitDx=0;exitDy=0;entryX=0.5;entryY=0;entryDx=0;entryDy=0;startArrow=none;startFill=0;endArrow=none;endFill=0;" parent="cYiUQkpwhXSrUYd20Ewe-1" source="vSzgxxjgGDa7kyAaiTMG-0" target="qmyJ6gA9JJhbhDuu2Kem-0" edge="1">
                    <mxGeometry relative="1" as="geometry"/>
                </mxCell>
                <mxCell id="vSzgxxjgGDa7kyAaiTMG-0" value="Read" style="ellipse;whiteSpace=wrap;html=1;align=center;" parent="cYiUQkpwhXSrUYd20Ewe-1" vertex="1">
                    <mxGeometry x="170" y="130" width="100" height="40" as="geometry"/>
                </mxCell>
                <mxCell id="nQPo9YAWOU4YjNUMwDxS-1" style="edgeStyle=none;html=1;exitX=0.5;exitY=0;exitDx=0;exitDy=0;startArrow=none;startFill=0;endArrow=none;endFill=0;" parent="cYiUQkpwhXSrUYd20Ewe-1" source="nQPo9YAWOU4YjNUMwDxS-0" edge="1">
                    <mxGeometry relative="1" as="geometry">
                        <mxPoint x="80" y="330" as="targetPoint"/>
                    </mxGeometry>
                </mxCell>
                <mxCell id="nQPo9YAWOU4YjNUMwDxS-0" value="Name" style="ellipse;whiteSpace=wrap;html=1;align=center;" parent="cYiUQkpwhXSrUYd20Ewe-1" vertex="1">
                    <mxGeometry x="20" y="360" width="100" height="40" as="geometry"/>
                </mxCell>
                <mxCell id="3wo3YwJmy8sUIPOVbECF-1" style="edgeStyle=none;html=1;exitX=0.5;exitY=0;exitDx=0;exitDy=0;entryX=0.25;entryY=1;entryDx=0;entryDy=0;startArrow=none;startFill=0;endArrow=none;endFill=0;" parent="cYiUQkpwhXSrUYd20Ewe-1" source="3wo3YwJmy8sUIPOVbECF-0" target="wEJNBm4grBwEPvbMczcW-9" edge="1">
                    <mxGeometry relative="1" as="geometry"/>
                </mxCell>
                <mxCell id="3wo3YwJmy8sUIPOVbECF-0" value="&lt;span style=&quot;text-align: left&quot;&gt;Borrow start date&lt;/span&gt;" style="ellipse;whiteSpace=wrap;html=1;align=center;" parent="cYiUQkpwhXSrUYd20Ewe-1" vertex="1">
                    <mxGeometry x="170" y="600" width="100" height="40" as="geometry"/>
                </mxCell>
                <mxCell id="3wo3YwJmy8sUIPOVbECF-3" style="edgeStyle=none;html=1;exitX=0.5;exitY=0;exitDx=0;exitDy=0;entryX=0.657;entryY=0.981;entryDx=0;entryDy=0;entryPerimeter=0;startArrow=none;startFill=0;endArrow=none;endFill=0;" parent="cYiUQkpwhXSrUYd20Ewe-1" source="3wo3YwJmy8sUIPOVbECF-2" target="wEJNBm4grBwEPvbMczcW-9" edge="1">
                    <mxGeometry relative="1" as="geometry"/>
                </mxCell>
                <mxCell id="3wo3YwJmy8sUIPOVbECF-2" value="&lt;span style=&quot;text-align: left&quot;&gt;Borrow end date&lt;/span&gt;" style="ellipse;whiteSpace=wrap;html=1;align=center;" parent="cYiUQkpwhXSrUYd20Ewe-1" vertex="1">
                    <mxGeometry x="240" y="650" width="100" height="40" as="geometry"/>
                </mxCell>
                <mxCell id="RwYwncg5dMr4mSvbQTSO-2" style="edgeStyle=none;html=1;exitX=0.5;exitY=0;exitDx=0;exitDy=0;entryX=0.5;entryY=1;entryDx=0;entryDy=0;startArrow=none;startFill=0;endArrow=none;endFill=0;" parent="cYiUQkpwhXSrUYd20Ewe-1" source="RwYwncg5dMr4mSvbQTSO-0" target="wEJNBm4grBwEPvbMczcW-3" edge="1">
                    <mxGeometry relative="1" as="geometry"/>
                </mxCell>
                <mxCell id="RwYwncg5dMr4mSvbQTSO-0" value="FName" style="ellipse;whiteSpace=wrap;html=1;align=center;" parent="cYiUQkpwhXSrUYd20Ewe-1" vertex="1">
                    <mxGeometry x="886" y="370" width="100" height="40" as="geometry"/>
                </mxCell>
                <mxCell id="RwYwncg5dMr4mSvbQTSO-3" style="edgeStyle=none;html=1;exitX=0;exitY=0;exitDx=0;exitDy=0;entryX=1;entryY=0.5;entryDx=0;entryDy=0;startArrow=none;startFill=0;endArrow=none;endFill=0;" parent="cYiUQkpwhXSrUYd20Ewe-1" source="RwYwncg5dMr4mSvbQTSO-1" target="wEJNBm4grBwEPvbMczcW-3" edge="1">
                    <mxGeometry relative="1" as="geometry"/>
                </mxCell>
                <mxCell id="RwYwncg5dMr4mSvbQTSO-1" value="LName" style="ellipse;whiteSpace=wrap;html=1;align=center;" parent="cYiUQkpwhXSrUYd20Ewe-1" vertex="1">
                    <mxGeometry x="1016" y="310" width="100" height="40" as="geometry"/>
                </mxCell>
                <mxCell id="YN9NC7QK4LnE4Ps0l5rI-1" style="edgeStyle=none;html=1;exitX=0;exitY=1;exitDx=0;exitDy=0;entryX=0.75;entryY=0;entryDx=0;entryDy=0;startArrow=none;startFill=0;endArrow=none;endFill=0;" parent="cYiUQkpwhXSrUYd20Ewe-1" source="YN9NC7QK4LnE4Ps0l5rI-0" target="wEJNBm4grBwEPvbMczcW-3" edge="1">
                    <mxGeometry relative="1" as="geometry"/>
                </mxCell>
                <mxCell id="YN9NC7QK4LnE4Ps0l5rI-0" value="&lt;u&gt;Author_ID&lt;/u&gt;" style="ellipse;whiteSpace=wrap;html=1;align=center;" parent="cYiUQkpwhXSrUYd20Ewe-1" vertex="1">
                    <mxGeometry x="996" y="210" width="100" height="40" as="geometry"/>
                </mxCell>
                <mxCell id="lt_KAv7gsK1yGiZ0PK4a-1" style="edgeStyle=none;html=1;exitX=0;exitY=0;exitDx=0;exitDy=0;entryX=1;entryY=1;entryDx=0;entryDy=0;startArrow=none;startFill=0;endArrow=none;endFill=0;" parent="cYiUQkpwhXSrUYd20Ewe-1" source="lt_KAv7gsK1yGiZ0PK4a-0" target="wEJNBm4grBwEPvbMczcW-7" edge="1">
                    <mxGeometry relative="1" as="geometry"/>
                </mxCell>
                <mxCell id="lt_KAv7gsK1yGiZ0PK4a-0" value="&lt;u&gt;BO_ID&lt;/u&gt;" style="ellipse;whiteSpace=wrap;html=1;align=center;" parent="cYiUQkpwhXSrUYd20Ewe-1" vertex="1">
                    <mxGeometry x="580" y="680" width="100" height="40" as="geometry"/>
                </mxCell>
                <mxCell id="R7hWGU_33PvqOalSEO14-2" style="edgeStyle=none;html=1;exitX=0.5;exitY=0;exitDx=0;exitDy=0;entryX=0.5;entryY=1;entryDx=0;entryDy=0;startArrow=none;startFill=0;endArrow=none;endFill=0;" parent="cYiUQkpwhXSrUYd20Ewe-1" source="lt_KAv7gsK1yGiZ0PK4a-2" target="wEJNBm4grBwEPvbMczcW-7" edge="1">
                    <mxGeometry relative="1" as="geometry"/>
                </mxCell>
                <mxCell id="lt_KAv7gsK1yGiZ0PK4a-2" value="FName" style="ellipse;whiteSpace=wrap;html=1;align=center;" parent="cYiUQkpwhXSrUYd20Ewe-1" vertex="1">
                    <mxGeometry x="424" y="770" width="100" height="40" as="geometry"/>
                </mxCell>
                <mxCell id="R7hWGU_33PvqOalSEO14-1" style="edgeStyle=none;html=1;exitX=0.5;exitY=0;exitDx=0;exitDy=0;entryX=0;entryY=1;entryDx=0;entryDy=0;startArrow=none;startFill=0;endArrow=none;endFill=0;" parent="cYiUQkpwhXSrUYd20Ewe-1" source="R7hWGU_33PvqOalSEO14-0" target="wEJNBm4grBwEPvbMczcW-7" edge="1">
                    <mxGeometry relative="1" as="geometry"/>
                </mxCell>
                <mxCell id="R7hWGU_33PvqOalSEO14-0" value="LName" style="ellipse;whiteSpace=wrap;html=1;align=center;" parent="cYiUQkpwhXSrUYd20Ewe-1" vertex="1">
                    <mxGeometry x="304" y="770" width="100" height="40" as="geometry"/>
                </mxCell>
                <mxCell id="R7hWGU_33PvqOalSEO14-4" style="edgeStyle=none;html=1;exitX=0;exitY=0;exitDx=0;exitDy=0;entryX=0.824;entryY=1.015;entryDx=0;entryDy=0;entryPerimeter=0;startArrow=none;startFill=0;endArrow=none;endFill=0;" parent="cYiUQkpwhXSrUYd20Ewe-1" source="R7hWGU_33PvqOalSEO14-3" target="wEJNBm4grBwEPvbMczcW-7" edge="1">
                    <mxGeometry relative="1" as="geometry"/>
                </mxCell>
                <mxCell id="R7hWGU_33PvqOalSEO14-3" value="Phone Number" style="ellipse;whiteSpace=wrap;html=1;align=center;" parent="cYiUQkpwhXSrUYd20Ewe-1" vertex="1">
                    <mxGeometry x="534" y="750" width="100" height="40" as="geometry"/>
                </mxCell>
                <mxCell id="HvX2SeSjaKwyyL4ZCgwy-1" style="edgeStyle=none;html=1;exitX=0;exitY=1;exitDx=0;exitDy=0;entryX=1;entryY=0;entryDx=0;entryDy=0;startArrow=none;startFill=0;endArrow=none;endFill=0;" parent="cYiUQkpwhXSrUYd20Ewe-1" source="HvX2SeSjaKwyyL4ZCgwy-0" target="FWKl5JYXBAnCbbzAL9v7-0" edge="1">
                    <mxGeometry relative="1" as="geometry"/>
                </mxCell>
                <mxCell id="HvX2SeSjaKwyyL4ZCgwy-0" value="Name" style="ellipse;whiteSpace=wrap;html=1;align=center;" parent="cYiUQkpwhXSrUYd20Ewe-1" vertex="1">
                    <mxGeometry x="524" y="210" width="100" height="40" as="geometry"/>
                </mxCell>
                <mxCell id="HvX2SeSjaKwyyL4ZCgwy-3" style="edgeStyle=none;html=1;exitX=0;exitY=0;exitDx=0;exitDy=0;entryX=1;entryY=1;entryDx=0;entryDy=0;startArrow=none;startFill=0;endArrow=none;endFill=0;" parent="cYiUQkpwhXSrUYd20Ewe-1" source="HvX2SeSjaKwyyL4ZCgwy-2" target="FWKl5JYXBAnCbbzAL9v7-0" edge="1">
                    <mxGeometry relative="1" as="geometry"/>
                </mxCell>
                <mxCell id="HvX2SeSjaKwyyL4ZCgwy-2" value="Description" style="ellipse;whiteSpace=wrap;html=1;align=center;" parent="cYiUQkpwhXSrUYd20Ewe-1" vertex="1">
                    <mxGeometry x="494" y="370" width="100" height="40" as="geometry"/>
                </mxCell>
                <mxCell id="eSAGLe3hCDNHeV23hcW4-1" style="edgeStyle=none;html=1;exitX=0.5;exitY=1;exitDx=0;exitDy=0;entryX=0.5;entryY=0;entryDx=0;entryDy=0;startArrow=none;startFill=0;endArrow=none;endFill=0;" parent="cYiUQkpwhXSrUYd20Ewe-1" source="eSAGLe3hCDNHeV23hcW4-0" target="VGvIaX08fntwdcF2sTLk-2" edge="1">
                    <mxGeometry relative="1" as="geometry"/>
                </mxCell>
                <mxCell id="eSAGLe3hCDNHeV23hcW4-0" value="&lt;u&gt;FM_ID&lt;/u&gt;" style="ellipse;whiteSpace=wrap;html=1;align=center;" parent="cYiUQkpwhXSrUYd20Ewe-1" vertex="1">
                    <mxGeometry x="10" y="220" width="100" height="40" as="geometry"/>
                </mxCell>
                <mxCell id="xcy1vOXi_6kNmixBq9Cv-1" style="edgeStyle=none;html=1;exitX=1;exitY=0;exitDx=0;exitDy=0;entryX=0.25;entryY=1;entryDx=0;entryDy=0;startArrow=none;startFill=0;endArrow=none;endFill=0;" parent="cYiUQkpwhXSrUYd20Ewe-1" source="xcy1vOXi_6kNmixBq9Cv-0" target="FWKl5JYXBAnCbbzAL9v7-0" edge="1">
                    <mxGeometry relative="1" as="geometry"/>
                </mxCell>
                <mxCell id="xcy1vOXi_6kNmixBq9Cv-0" value="&lt;u&gt;Book_ID&lt;/u&gt;" style="ellipse;whiteSpace=wrap;html=1;align=center;" parent="cYiUQkpwhXSrUYd20Ewe-1" vertex="1">
                    <mxGeometry x="274" y="400" width="100" height="40" as="geometry"/>
                </mxCell>
                <mxCell id="PRoKCBygEGugXzvHraO0-1" style="edgeStyle=none;html=1;exitX=1;exitY=0.5;exitDx=0;exitDy=0;startArrow=none;startFill=0;endArrow=none;endFill=0;" parent="cYiUQkpwhXSrUYd20Ewe-1" source="PRoKCBygEGugXzvHraO0-0" edge="1">
                    <mxGeometry relative="1" as="geometry">
                        <mxPoint x="200" y="550" as="targetPoint"/>
                    </mxGeometry>
                </mxCell>
                <mxCell id="PRoKCBygEGugXzvHraO0-0" value="&lt;u&gt;Borrow_ID&lt;/u&gt;" style="ellipse;whiteSpace=wrap;html=1;align=center;" parent="cYiUQkpwhXSrUYd20Ewe-1" vertex="1">
                    <mxGeometry x="70" y="530" width="100" height="40" as="geometry"/>
                </mxCell>
                <mxCell id="Dw7hJlt54WYgAIfNquUb-1" style="edgeStyle=none;html=1;exitX=1;exitY=0;exitDx=0;exitDy=0;startArrow=none;startFill=0;endArrow=none;endFill=0;dashed=1;dashPattern=1 1;" parent="cYiUQkpwhXSrUYd20Ewe-1" source="Dw7hJlt54WYgAIfNquUb-0" edge="1">
                    <mxGeometry relative="1" as="geometry">
                        <mxPoint x="210" y="570" as="targetPoint"/>
                    </mxGeometry>
                </mxCell>
                <mxCell id="Dw7hJlt54WYgAIfNquUb-0" value="Borrow period" style="ellipse;whiteSpace=wrap;html=1;align=center;dashed=1;" parent="cYiUQkpwhXSrUYd20Ewe-1" vertex="1">
                    <mxGeometry x="40" y="600" width="100" height="40" as="geometry"/>
                </mxCell>
                <mxCell id="jt03vTdktmuY13mdGJFs-1" style="edgeStyle=none;html=1;exitX=0;exitY=0.5;exitDx=0;exitDy=0;entryX=1;entryY=0.75;entryDx=0;entryDy=0;endArrow=none;endFill=0;" edge="1" parent="cYiUQkpwhXSrUYd20Ewe-1" source="jt03vTdktmuY13mdGJFs-0" target="dIzMhW4nH7jWB1z9T61W-5">
                    <mxGeometry relative="1" as="geometry"/>
                </mxCell>
                <mxCell id="jt03vTdktmuY13mdGJFs-0" value="Name" style="ellipse;whiteSpace=wrap;html=1;align=center;" vertex="1" parent="cYiUQkpwhXSrUYd20Ewe-1">
                    <mxGeometry x="510" y="-30" width="100" height="40" as="geometry"/>
                </mxCell>
            </root>
        </mxGraphModel>
    </diagram>
    <diagram id="3aQwsoEZcqAc43GRUfIh" name="Step 3 - UML">
        <mxGraphModel dx="2442" dy="667" grid="1" gridSize="10" guides="1" tooltips="1" connect="1" arrows="1" fold="1" page="1" pageScale="1" pageWidth="827" pageHeight="1169" math="0" shadow="0">
            <root>
                <mxCell id="J5yJ5cRhwVp5PXt5GpfA-0"/>
                <mxCell id="J5yJ5cRhwVp5PXt5GpfA-1" parent="J5yJ5cRhwVp5PXt5GpfA-0"/>
                <mxCell id="glbTC51fWOqyENchxHuD-0" value="Book (title)" style="shape=table;startSize=30;container=1;collapsible=1;childLayout=tableLayout;fixedRows=1;rowLines=0;fontStyle=1;align=center;resizeLast=1;" parent="J5yJ5cRhwVp5PXt5GpfA-1" vertex="1">
                    <mxGeometry x="-502" y="280" width="180" height="220" as="geometry"/>
                </mxCell>
                <mxCell id="glbTC51fWOqyENchxHuD-1" value="" style="shape=partialRectangle;collapsible=0;dropTarget=0;pointerEvents=0;fillColor=none;top=0;left=0;bottom=1;right=0;points=[[0,0.5],[1,0.5]];portConstraint=eastwest;" parent="glbTC51fWOqyENchxHuD-0" vertex="1">
                    <mxGeometry y="30" width="180" height="30" as="geometry"/>
                </mxCell>
                <mxCell id="glbTC51fWOqyENchxHuD-2" value="PK" style="shape=partialRectangle;connectable=0;fillColor=none;top=0;left=0;bottom=0;right=0;fontStyle=1;overflow=hidden;" parent="glbTC51fWOqyENchxHuD-1" vertex="1">
                    <mxGeometry width="30" height="30" as="geometry">
                        <mxRectangle width="30" height="30" as="alternateBounds"/>
                    </mxGeometry>
                </mxCell>
                <mxCell id="glbTC51fWOqyENchxHuD-3" value="Book_ID: int" style="shape=partialRectangle;connectable=0;fillColor=none;top=0;left=0;bottom=0;right=0;align=left;spacingLeft=6;fontStyle=5;overflow=hidden;" parent="glbTC51fWOqyENchxHuD-1" vertex="1">
                    <mxGeometry x="30" width="150" height="30" as="geometry">
                        <mxRectangle width="150" height="30" as="alternateBounds"/>
                    </mxGeometry>
                </mxCell>
                <mxCell id="glbTC51fWOqyENchxHuD-4" value="" style="shape=partialRectangle;collapsible=0;dropTarget=0;pointerEvents=0;fillColor=none;top=0;left=0;bottom=0;right=0;points=[[0,0.5],[1,0.5]];portConstraint=eastwest;" parent="glbTC51fWOqyENchxHuD-0" vertex="1">
                    <mxGeometry y="60" width="180" height="30" as="geometry"/>
                </mxCell>
                <mxCell id="glbTC51fWOqyENchxHuD-5" value="" style="shape=partialRectangle;connectable=0;fillColor=none;top=0;left=0;bottom=0;right=0;editable=1;overflow=hidden;" parent="glbTC51fWOqyENchxHuD-4" vertex="1">
                    <mxGeometry width="30" height="30" as="geometry">
                        <mxRectangle width="30" height="30" as="alternateBounds"/>
                    </mxGeometry>
                </mxCell>
                <mxCell id="glbTC51fWOqyENchxHuD-6" value="Name: string   " style="shape=partialRectangle;connectable=0;fillColor=none;top=0;left=0;bottom=0;right=0;align=left;spacingLeft=6;overflow=hidden;" parent="glbTC51fWOqyENchxHuD-4" vertex="1">
                    <mxGeometry x="30" width="150" height="30" as="geometry">
                        <mxRectangle width="150" height="30" as="alternateBounds"/>
                    </mxGeometry>
                </mxCell>
                <mxCell id="glbTC51fWOqyENchxHuD-7" value="" style="shape=partialRectangle;collapsible=0;dropTarget=0;pointerEvents=0;fillColor=none;top=0;left=0;bottom=0;right=0;points=[[0,0.5],[1,0.5]];portConstraint=eastwest;" parent="glbTC51fWOqyENchxHuD-0" vertex="1">
                    <mxGeometry y="90" width="180" height="30" as="geometry"/>
                </mxCell>
                <mxCell id="glbTC51fWOqyENchxHuD-8" value="" style="shape=partialRectangle;connectable=0;fillColor=none;top=0;left=0;bottom=0;right=0;editable=1;overflow=hidden;" parent="glbTC51fWOqyENchxHuD-7" vertex="1">
                    <mxGeometry width="30" height="30" as="geometry">
                        <mxRectangle width="30" height="30" as="alternateBounds"/>
                    </mxGeometry>
                </mxCell>
                <mxCell id="glbTC51fWOqyENchxHuD-9" value="Description: string" style="shape=partialRectangle;connectable=0;fillColor=none;top=0;left=0;bottom=0;right=0;align=left;spacingLeft=6;overflow=hidden;" parent="glbTC51fWOqyENchxHuD-7" vertex="1">
                    <mxGeometry x="30" width="150" height="30" as="geometry">
                        <mxRectangle width="150" height="30" as="alternateBounds"/>
                    </mxGeometry>
                </mxCell>
                <mxCell id="glbTC51fWOqyENchxHuD-10" value="" style="shape=partialRectangle;collapsible=0;dropTarget=0;pointerEvents=0;fillColor=none;top=0;left=0;bottom=0;right=0;points=[[0,0.5],[1,0.5]];portConstraint=eastwest;" parent="glbTC51fWOqyENchxHuD-0" vertex="1">
                    <mxGeometry y="120" width="180" height="30" as="geometry"/>
                </mxCell>
                <mxCell id="glbTC51fWOqyENchxHuD-11" value="FK" style="shape=partialRectangle;connectable=0;fillColor=none;top=0;left=0;bottom=0;right=0;editable=1;overflow=hidden;fontStyle=1" parent="glbTC51fWOqyENchxHuD-10" vertex="1">
                    <mxGeometry width="30" height="30" as="geometry">
                        <mxRectangle width="30" height="30" as="alternateBounds"/>
                    </mxGeometry>
                </mxCell>
                <mxCell id="glbTC51fWOqyENchxHuD-12" value="Author_ID: int" style="shape=partialRectangle;connectable=0;fillColor=none;top=0;left=0;bottom=0;right=0;align=left;spacingLeft=6;overflow=hidden;fontStyle=1" parent="glbTC51fWOqyENchxHuD-10" vertex="1">
                    <mxGeometry x="30" width="150" height="30" as="geometry">
                        <mxRectangle width="150" height="30" as="alternateBounds"/>
                    </mxGeometry>
                </mxCell>
                <mxCell id="glbTC51fWOqyENchxHuD-13" value="" style="shape=partialRectangle;collapsible=0;dropTarget=0;pointerEvents=0;fillColor=none;top=0;left=0;bottom=0;right=0;points=[[0,0.5],[1,0.5]];portConstraint=eastwest;" parent="glbTC51fWOqyENchxHuD-0" vertex="1">
                    <mxGeometry y="150" width="180" height="30" as="geometry"/>
                </mxCell>
                <mxCell id="glbTC51fWOqyENchxHuD-14" value="FK" style="shape=partialRectangle;connectable=0;fillColor=none;top=0;left=0;bottom=0;right=0;editable=1;overflow=hidden;fontStyle=1" parent="glbTC51fWOqyENchxHuD-13" vertex="1">
                    <mxGeometry width="30" height="30" as="geometry">
                        <mxRectangle width="30" height="30" as="alternateBounds"/>
                    </mxGeometry>
                </mxCell>
                <mxCell id="glbTC51fWOqyENchxHuD-15" value="BO_ID: int" style="shape=partialRectangle;connectable=0;fillColor=none;top=0;left=0;bottom=0;right=0;align=left;spacingLeft=6;overflow=hidden;fontStyle=1" parent="glbTC51fWOqyENchxHuD-13" vertex="1">
                    <mxGeometry x="30" width="150" height="30" as="geometry">
                        <mxRectangle width="150" height="30" as="alternateBounds"/>
                    </mxGeometry>
                </mxCell>
                <mxCell id="ISwCtXagvppbZLEdp9M5-0" value="" style="shape=partialRectangle;collapsible=0;dropTarget=0;pointerEvents=0;fillColor=none;top=0;left=0;bottom=0;right=0;points=[[0,0.5],[1,0.5]];portConstraint=eastwest;" parent="glbTC51fWOqyENchxHuD-0" vertex="1">
                    <mxGeometry y="180" width="180" height="30" as="geometry"/>
                </mxCell>
                <mxCell id="ISwCtXagvppbZLEdp9M5-1" value="FK" style="shape=partialRectangle;connectable=0;fillColor=none;top=0;left=0;bottom=0;right=0;editable=1;overflow=hidden;fontStyle=1" parent="ISwCtXagvppbZLEdp9M5-0" vertex="1">
                    <mxGeometry width="30" height="30" as="geometry">
                        <mxRectangle width="30" height="30" as="alternateBounds"/>
                    </mxGeometry>
                </mxCell>
                <mxCell id="ISwCtXagvppbZLEdp9M5-2" value="Room_ID: int" style="shape=partialRectangle;connectable=0;fillColor=none;top=0;left=0;bottom=0;right=0;align=left;spacingLeft=6;overflow=hidden;fontStyle=1" parent="ISwCtXagvppbZLEdp9M5-0" vertex="1">
                    <mxGeometry x="30" width="150" height="30" as="geometry">
                        <mxRectangle width="150" height="30" as="alternateBounds"/>
                    </mxGeometry>
                </mxCell>
                <mxCell id="0Q2ZBOHDDr-IDRLtq9IO-0" value="Author" style="shape=table;startSize=30;container=1;collapsible=1;childLayout=tableLayout;fixedRows=1;rowLines=0;fontStyle=1;align=center;resizeLast=1;" parent="J5yJ5cRhwVp5PXt5GpfA-1" vertex="1">
                    <mxGeometry x="-252" y="280" width="180" height="130" as="geometry"/>
                </mxCell>
                <mxCell id="0Q2ZBOHDDr-IDRLtq9IO-1" value="" style="shape=partialRectangle;collapsible=0;dropTarget=0;pointerEvents=0;fillColor=none;top=0;left=0;bottom=1;right=0;points=[[0,0.5],[1,0.5]];portConstraint=eastwest;" parent="0Q2ZBOHDDr-IDRLtq9IO-0" vertex="1">
                    <mxGeometry y="30" width="180" height="30" as="geometry"/>
                </mxCell>
                <mxCell id="0Q2ZBOHDDr-IDRLtq9IO-2" value="PK" style="shape=partialRectangle;connectable=0;fillColor=none;top=0;left=0;bottom=0;right=0;fontStyle=1;overflow=hidden;" parent="0Q2ZBOHDDr-IDRLtq9IO-1" vertex="1">
                    <mxGeometry width="30" height="30" as="geometry">
                        <mxRectangle width="30" height="30" as="alternateBounds"/>
                    </mxGeometry>
                </mxCell>
                <mxCell id="0Q2ZBOHDDr-IDRLtq9IO-3" value="Author_ID: int" style="shape=partialRectangle;connectable=0;fillColor=none;top=0;left=0;bottom=0;right=0;align=left;spacingLeft=6;fontStyle=5;overflow=hidden;" parent="0Q2ZBOHDDr-IDRLtq9IO-1" vertex="1">
                    <mxGeometry x="30" width="150" height="30" as="geometry">
                        <mxRectangle width="150" height="30" as="alternateBounds"/>
                    </mxGeometry>
                </mxCell>
                <mxCell id="0Q2ZBOHDDr-IDRLtq9IO-4" value="" style="shape=partialRectangle;collapsible=0;dropTarget=0;pointerEvents=0;fillColor=none;top=0;left=0;bottom=0;right=0;points=[[0,0.5],[1,0.5]];portConstraint=eastwest;" parent="0Q2ZBOHDDr-IDRLtq9IO-0" vertex="1">
                    <mxGeometry y="60" width="180" height="30" as="geometry"/>
                </mxCell>
                <mxCell id="0Q2ZBOHDDr-IDRLtq9IO-5" value="" style="shape=partialRectangle;connectable=0;fillColor=none;top=0;left=0;bottom=0;right=0;editable=1;overflow=hidden;" parent="0Q2ZBOHDDr-IDRLtq9IO-4" vertex="1">
                    <mxGeometry width="30" height="30" as="geometry">
                        <mxRectangle width="30" height="30" as="alternateBounds"/>
                    </mxGeometry>
                </mxCell>
                <mxCell id="0Q2ZBOHDDr-IDRLtq9IO-6" value="FName: string" style="shape=partialRectangle;connectable=0;fillColor=none;top=0;left=0;bottom=0;right=0;align=left;spacingLeft=6;overflow=hidden;" parent="0Q2ZBOHDDr-IDRLtq9IO-4" vertex="1">
                    <mxGeometry x="30" width="150" height="30" as="geometry">
                        <mxRectangle width="150" height="30" as="alternateBounds"/>
                    </mxGeometry>
                </mxCell>
                <mxCell id="0Q2ZBOHDDr-IDRLtq9IO-7" value="" style="shape=partialRectangle;collapsible=0;dropTarget=0;pointerEvents=0;fillColor=none;top=0;left=0;bottom=0;right=0;points=[[0,0.5],[1,0.5]];portConstraint=eastwest;" parent="0Q2ZBOHDDr-IDRLtq9IO-0" vertex="1">
                    <mxGeometry y="90" width="180" height="30" as="geometry"/>
                </mxCell>
                <mxCell id="0Q2ZBOHDDr-IDRLtq9IO-8" value="" style="shape=partialRectangle;connectable=0;fillColor=none;top=0;left=0;bottom=0;right=0;editable=1;overflow=hidden;" parent="0Q2ZBOHDDr-IDRLtq9IO-7" vertex="1">
                    <mxGeometry width="30" height="30" as="geometry">
                        <mxRectangle width="30" height="30" as="alternateBounds"/>
                    </mxGeometry>
                </mxCell>
                <mxCell id="0Q2ZBOHDDr-IDRLtq9IO-9" value="LName: string" style="shape=partialRectangle;connectable=0;fillColor=none;top=0;left=0;bottom=0;right=0;align=left;spacingLeft=6;overflow=hidden;" parent="0Q2ZBOHDDr-IDRLtq9IO-7" vertex="1">
                    <mxGeometry x="30" width="150" height="30" as="geometry">
                        <mxRectangle width="150" height="30" as="alternateBounds"/>
                    </mxGeometry>
                </mxCell>
                <mxCell id="0Q2ZBOHDDr-IDRLtq9IO-13" value="" style="edgeStyle=none;html=1;startArrow=ERmany;startFill=0;endArrow=ERone;endFill=0;exitX=1.01;exitY=0.078;exitDx=0;exitDy=0;exitPerimeter=0;" parent="J5yJ5cRhwVp5PXt5GpfA-1" edge="1">
                    <mxGeometry relative="1" as="geometry">
                        <mxPoint x="-320.1999999999998" y="294.81999999999994" as="sourcePoint"/>
                        <mxPoint x="-254" y="295" as="targetPoint"/>
                    </mxGeometry>
                </mxCell>
                <mxCell id="qcE_S-48bNMLYvB1oLl5-0" value="Book owner" style="shape=table;startSize=30;container=1;collapsible=1;childLayout=tableLayout;fixedRows=1;rowLines=0;fontStyle=1;align=center;resizeLast=1;" parent="J5yJ5cRhwVp5PXt5GpfA-1" vertex="1">
                    <mxGeometry x="-502" y="60" width="180" height="160" as="geometry"/>
                </mxCell>
                <mxCell id="qcE_S-48bNMLYvB1oLl5-1" value="" style="shape=partialRectangle;collapsible=0;dropTarget=0;pointerEvents=0;fillColor=none;top=0;left=0;bottom=1;right=0;points=[[0,0.5],[1,0.5]];portConstraint=eastwest;" parent="qcE_S-48bNMLYvB1oLl5-0" vertex="1">
                    <mxGeometry y="30" width="180" height="30" as="geometry"/>
                </mxCell>
                <mxCell id="qcE_S-48bNMLYvB1oLl5-2" value="PK" style="shape=partialRectangle;connectable=0;fillColor=none;top=0;left=0;bottom=0;right=0;fontStyle=1;overflow=hidden;" parent="qcE_S-48bNMLYvB1oLl5-1" vertex="1">
                    <mxGeometry width="30" height="30" as="geometry">
                        <mxRectangle width="30" height="30" as="alternateBounds"/>
                    </mxGeometry>
                </mxCell>
                <mxCell id="qcE_S-48bNMLYvB1oLl5-3" value="BO_ID: int" style="shape=partialRectangle;connectable=0;fillColor=none;top=0;left=0;bottom=0;right=0;align=left;spacingLeft=6;fontStyle=5;overflow=hidden;" parent="qcE_S-48bNMLYvB1oLl5-1" vertex="1">
                    <mxGeometry x="30" width="150" height="30" as="geometry">
                        <mxRectangle width="150" height="30" as="alternateBounds"/>
                    </mxGeometry>
                </mxCell>
                <mxCell id="qcE_S-48bNMLYvB1oLl5-4" value="" style="shape=partialRectangle;collapsible=0;dropTarget=0;pointerEvents=0;fillColor=none;top=0;left=0;bottom=0;right=0;points=[[0,0.5],[1,0.5]];portConstraint=eastwest;" parent="qcE_S-48bNMLYvB1oLl5-0" vertex="1">
                    <mxGeometry y="60" width="180" height="30" as="geometry"/>
                </mxCell>
                <mxCell id="qcE_S-48bNMLYvB1oLl5-5" value="" style="shape=partialRectangle;connectable=0;fillColor=none;top=0;left=0;bottom=0;right=0;editable=1;overflow=hidden;" parent="qcE_S-48bNMLYvB1oLl5-4" vertex="1">
                    <mxGeometry width="30" height="30" as="geometry">
                        <mxRectangle width="30" height="30" as="alternateBounds"/>
                    </mxGeometry>
                </mxCell>
                <mxCell id="qcE_S-48bNMLYvB1oLl5-6" value="FName: string" style="shape=partialRectangle;connectable=0;fillColor=none;top=0;left=0;bottom=0;right=0;align=left;spacingLeft=6;overflow=hidden;" parent="qcE_S-48bNMLYvB1oLl5-4" vertex="1">
                    <mxGeometry x="30" width="150" height="30" as="geometry">
                        <mxRectangle width="150" height="30" as="alternateBounds"/>
                    </mxGeometry>
                </mxCell>
                <mxCell id="qcE_S-48bNMLYvB1oLl5-7" value="" style="shape=partialRectangle;collapsible=0;dropTarget=0;pointerEvents=0;fillColor=none;top=0;left=0;bottom=0;right=0;points=[[0,0.5],[1,0.5]];portConstraint=eastwest;" parent="qcE_S-48bNMLYvB1oLl5-0" vertex="1">
                    <mxGeometry y="90" width="180" height="30" as="geometry"/>
                </mxCell>
                <mxCell id="qcE_S-48bNMLYvB1oLl5-8" value="" style="shape=partialRectangle;connectable=0;fillColor=none;top=0;left=0;bottom=0;right=0;editable=1;overflow=hidden;" parent="qcE_S-48bNMLYvB1oLl5-7" vertex="1">
                    <mxGeometry width="30" height="30" as="geometry">
                        <mxRectangle width="30" height="30" as="alternateBounds"/>
                    </mxGeometry>
                </mxCell>
                <mxCell id="qcE_S-48bNMLYvB1oLl5-9" value="LName: string" style="shape=partialRectangle;connectable=0;fillColor=none;top=0;left=0;bottom=0;right=0;align=left;spacingLeft=6;overflow=hidden;" parent="qcE_S-48bNMLYvB1oLl5-7" vertex="1">
                    <mxGeometry x="30" width="150" height="30" as="geometry">
                        <mxRectangle width="150" height="30" as="alternateBounds"/>
                    </mxGeometry>
                </mxCell>
                <mxCell id="qcE_S-48bNMLYvB1oLl5-10" value="" style="shape=partialRectangle;collapsible=0;dropTarget=0;pointerEvents=0;fillColor=none;top=0;left=0;bottom=0;right=0;points=[[0,0.5],[1,0.5]];portConstraint=eastwest;" parent="qcE_S-48bNMLYvB1oLl5-0" vertex="1">
                    <mxGeometry y="120" width="180" height="30" as="geometry"/>
                </mxCell>
                <mxCell id="qcE_S-48bNMLYvB1oLl5-11" value="" style="shape=partialRectangle;connectable=0;fillColor=none;top=0;left=0;bottom=0;right=0;editable=1;overflow=hidden;" parent="qcE_S-48bNMLYvB1oLl5-10" vertex="1">
                    <mxGeometry width="30" height="30" as="geometry">
                        <mxRectangle width="30" height="30" as="alternateBounds"/>
                    </mxGeometry>
                </mxCell>
                <mxCell id="qcE_S-48bNMLYvB1oLl5-12" value="Phone Number: int" style="shape=partialRectangle;connectable=0;fillColor=none;top=0;left=0;bottom=0;right=0;align=left;spacingLeft=6;overflow=hidden;" parent="qcE_S-48bNMLYvB1oLl5-10" vertex="1">
                    <mxGeometry x="30" width="150" height="30" as="geometry">
                        <mxRectangle width="150" height="30" as="alternateBounds"/>
                    </mxGeometry>
                </mxCell>
                <mxCell id="-6nxJTEkC_HD4tW-7R_6-0" value="" style="edgeStyle=none;html=1;startArrow=ERone;startFill=0;endArrow=ERmany;endFill=0;" parent="J5yJ5cRhwVp5PXt5GpfA-1" edge="1">
                    <mxGeometry relative="1" as="geometry">
                        <mxPoint x="-412.5" y="220" as="sourcePoint"/>
                        <mxPoint x="-412.5" y="280" as="targetPoint"/>
                    </mxGeometry>
                </mxCell>
                <mxCell id="SGp_eA93BI0rYDloSLz8-0" value="Family members" style="shape=table;startSize=30;container=1;collapsible=1;childLayout=tableLayout;fixedRows=1;rowLines=0;fontStyle=1;align=center;resizeLast=1;" parent="J5yJ5cRhwVp5PXt5GpfA-1" vertex="1">
                    <mxGeometry x="-770" y="280" width="180" height="130" as="geometry"/>
                </mxCell>
                <mxCell id="SGp_eA93BI0rYDloSLz8-1" value="" style="shape=partialRectangle;collapsible=0;dropTarget=0;pointerEvents=0;fillColor=none;top=0;left=0;bottom=1;right=0;points=[[0,0.5],[1,0.5]];portConstraint=eastwest;" parent="SGp_eA93BI0rYDloSLz8-0" vertex="1">
                    <mxGeometry y="30" width="180" height="30" as="geometry"/>
                </mxCell>
                <mxCell id="SGp_eA93BI0rYDloSLz8-2" value="PK" style="shape=partialRectangle;connectable=0;fillColor=none;top=0;left=0;bottom=0;right=0;fontStyle=1;overflow=hidden;" parent="SGp_eA93BI0rYDloSLz8-1" vertex="1">
                    <mxGeometry width="30" height="30" as="geometry">
                        <mxRectangle width="30" height="30" as="alternateBounds"/>
                    </mxGeometry>
                </mxCell>
                <mxCell id="SGp_eA93BI0rYDloSLz8-3" value="FM_ID: int" style="shape=partialRectangle;connectable=0;fillColor=none;top=0;left=0;bottom=0;right=0;align=left;spacingLeft=6;fontStyle=5;overflow=hidden;" parent="SGp_eA93BI0rYDloSLz8-1" vertex="1">
                    <mxGeometry x="30" width="150" height="30" as="geometry">
                        <mxRectangle width="150" height="30" as="alternateBounds"/>
                    </mxGeometry>
                </mxCell>
                <mxCell id="SGp_eA93BI0rYDloSLz8-4" value="" style="shape=partialRectangle;collapsible=0;dropTarget=0;pointerEvents=0;fillColor=none;top=0;left=0;bottom=0;right=0;points=[[0,0.5],[1,0.5]];portConstraint=eastwest;" parent="SGp_eA93BI0rYDloSLz8-0" vertex="1">
                    <mxGeometry y="60" width="180" height="30" as="geometry"/>
                </mxCell>
                <mxCell id="SGp_eA93BI0rYDloSLz8-5" value="" style="shape=partialRectangle;connectable=0;fillColor=none;top=0;left=0;bottom=0;right=0;editable=1;overflow=hidden;" parent="SGp_eA93BI0rYDloSLz8-4" vertex="1">
                    <mxGeometry width="30" height="30" as="geometry">
                        <mxRectangle width="30" height="30" as="alternateBounds"/>
                    </mxGeometry>
                </mxCell>
                <mxCell id="SGp_eA93BI0rYDloSLz8-6" value="Name: string" style="shape=partialRectangle;connectable=0;fillColor=none;top=0;left=0;bottom=0;right=0;align=left;spacingLeft=6;overflow=hidden;" parent="SGp_eA93BI0rYDloSLz8-4" vertex="1">
                    <mxGeometry x="30" width="150" height="30" as="geometry">
                        <mxRectangle width="150" height="30" as="alternateBounds"/>
                    </mxGeometry>
                </mxCell>
                <mxCell id="hGYZyAlVRXtgjtkNnH5Y-0" value="" style="shape=partialRectangle;collapsible=0;dropTarget=0;pointerEvents=0;fillColor=none;top=0;left=0;bottom=0;right=0;points=[[0,0.5],[1,0.5]];portConstraint=eastwest;" parent="SGp_eA93BI0rYDloSLz8-0" vertex="1">
                    <mxGeometry y="90" width="180" height="30" as="geometry"/>
                </mxCell>
                <mxCell id="hGYZyAlVRXtgjtkNnH5Y-1" value="FK" style="shape=partialRectangle;connectable=0;fillColor=none;top=0;left=0;bottom=0;right=0;editable=1;overflow=hidden;" parent="hGYZyAlVRXtgjtkNnH5Y-0" vertex="1">
                    <mxGeometry width="30" height="30" as="geometry">
                        <mxRectangle width="30" height="30" as="alternateBounds"/>
                    </mxGeometry>
                </mxCell>
                <mxCell id="hGYZyAlVRXtgjtkNnH5Y-2" value="Book_ID: int " style="shape=partialRectangle;connectable=0;fillColor=none;top=0;left=0;bottom=0;right=0;align=left;spacingLeft=6;overflow=hidden;" parent="hGYZyAlVRXtgjtkNnH5Y-0" vertex="1">
                    <mxGeometry x="30" width="150" height="30" as="geometry">
                        <mxRectangle width="150" height="30" as="alternateBounds"/>
                    </mxGeometry>
                </mxCell>
                <mxCell id="SGp_eA93BI0rYDloSLz8-13" style="edgeStyle=none;html=1;startArrow=ERmany;startFill=0;endArrow=ERmany;endFill=0;entryX=-0.005;entryY=0.065;entryDx=0;entryDy=0;entryPerimeter=0;" parent="J5yJ5cRhwVp5PXt5GpfA-1" target="glbTC51fWOqyENchxHuD-0" edge="1">
                    <mxGeometry relative="1" as="geometry">
                        <mxPoint x="-502" y="300" as="targetPoint"/>
                        <mxPoint x="-590" y="292" as="sourcePoint"/>
                    </mxGeometry>
                </mxCell>
                <mxCell id="HH_uIE5mniV1-59r437x-7" value="" style="edgeStyle=none;html=1;startArrow=ERone;startFill=0;endArrow=ERmany;endFill=0;exitX=0.5;exitY=0;exitDx=0;exitDy=0;" parent="J5yJ5cRhwVp5PXt5GpfA-1" source="faNAnmvO36NbuaZPu1BP-0" edge="1">
                    <mxGeometry relative="1" as="geometry">
                        <mxPoint x="-413" y="560" as="sourcePoint"/>
                        <mxPoint x="-413" y="500" as="targetPoint"/>
                    </mxGeometry>
                </mxCell>
                <mxCell id="faNAnmvO36NbuaZPu1BP-0" value="Room" style="shape=table;startSize=30;container=1;collapsible=1;childLayout=tableLayout;fixedRows=1;rowLines=0;fontStyle=1;align=center;resizeLast=1;" parent="J5yJ5cRhwVp5PXt5GpfA-1" vertex="1">
                    <mxGeometry x="-502" y="570" width="180" height="130" as="geometry"/>
                </mxCell>
                <mxCell id="faNAnmvO36NbuaZPu1BP-1" value="" style="shape=partialRectangle;collapsible=0;dropTarget=0;pointerEvents=0;fillColor=none;top=0;left=0;bottom=1;right=0;points=[[0,0.5],[1,0.5]];portConstraint=eastwest;" parent="faNAnmvO36NbuaZPu1BP-0" vertex="1">
                    <mxGeometry y="30" width="180" height="30" as="geometry"/>
                </mxCell>
                <mxCell id="faNAnmvO36NbuaZPu1BP-2" value="PK" style="shape=partialRectangle;connectable=0;fillColor=none;top=0;left=0;bottom=0;right=0;fontStyle=1;overflow=hidden;" parent="faNAnmvO36NbuaZPu1BP-1" vertex="1">
                    <mxGeometry width="30" height="30" as="geometry">
                        <mxRectangle width="30" height="30" as="alternateBounds"/>
                    </mxGeometry>
                </mxCell>
                <mxCell id="faNAnmvO36NbuaZPu1BP-3" value="Room_ID: int" style="shape=partialRectangle;connectable=0;fillColor=none;top=0;left=0;bottom=0;right=0;align=left;spacingLeft=6;fontStyle=5;overflow=hidden;" parent="faNAnmvO36NbuaZPu1BP-1" vertex="1">
                    <mxGeometry x="30" width="150" height="30" as="geometry">
                        <mxRectangle width="150" height="30" as="alternateBounds"/>
                    </mxGeometry>
                </mxCell>
                <mxCell id="faNAnmvO36NbuaZPu1BP-4" value="" style="shape=partialRectangle;collapsible=0;dropTarget=0;pointerEvents=0;fillColor=none;top=0;left=0;bottom=0;right=0;points=[[0,0.5],[1,0.5]];portConstraint=eastwest;" parent="faNAnmvO36NbuaZPu1BP-0" vertex="1">
                    <mxGeometry y="60" width="180" height="30" as="geometry"/>
                </mxCell>
                <mxCell id="faNAnmvO36NbuaZPu1BP-5" value="" style="shape=partialRectangle;connectable=0;fillColor=none;top=0;left=0;bottom=0;right=0;editable=1;overflow=hidden;" parent="faNAnmvO36NbuaZPu1BP-4" vertex="1">
                    <mxGeometry width="30" height="30" as="geometry">
                        <mxRectangle width="30" height="30" as="alternateBounds"/>
                    </mxGeometry>
                </mxCell>
                <mxCell id="faNAnmvO36NbuaZPu1BP-6" value="Floor: int" style="shape=partialRectangle;connectable=0;fillColor=none;top=0;left=0;bottom=0;right=0;align=left;spacingLeft=6;overflow=hidden;" parent="faNAnmvO36NbuaZPu1BP-4" vertex="1">
                    <mxGeometry x="30" width="150" height="30" as="geometry">
                        <mxRectangle width="150" height="30" as="alternateBounds"/>
                    </mxGeometry>
                </mxCell>
                <mxCell id="faNAnmvO36NbuaZPu1BP-7" value="" style="shape=partialRectangle;collapsible=0;dropTarget=0;pointerEvents=0;fillColor=none;top=0;left=0;bottom=0;right=0;points=[[0,0.5],[1,0.5]];portConstraint=eastwest;" parent="faNAnmvO36NbuaZPu1BP-0" vertex="1">
                    <mxGeometry y="90" width="180" height="30" as="geometry"/>
                </mxCell>
                <mxCell id="faNAnmvO36NbuaZPu1BP-8" value="" style="shape=partialRectangle;connectable=0;fillColor=none;top=0;left=0;bottom=0;right=0;editable=1;overflow=hidden;" parent="faNAnmvO36NbuaZPu1BP-7" vertex="1">
                    <mxGeometry width="30" height="30" as="geometry">
                        <mxRectangle width="30" height="30" as="alternateBounds"/>
                    </mxGeometry>
                </mxCell>
                <mxCell id="faNAnmvO36NbuaZPu1BP-9" value="Room Name: string" style="shape=partialRectangle;connectable=0;fillColor=none;top=0;left=0;bottom=0;right=0;align=left;spacingLeft=6;overflow=hidden;" parent="faNAnmvO36NbuaZPu1BP-7" vertex="1">
                    <mxGeometry x="30" width="150" height="30" as="geometry">
                        <mxRectangle width="150" height="30" as="alternateBounds"/>
                    </mxGeometry>
                </mxCell>
            </root>
        </mxGraphModel>
    </diagram>
    <diagram id="tczZRLV42dAja_REWewz" name="Step 4 - Norm.">
        <mxGraphModel dx="2442" dy="667" grid="1" gridSize="10" guides="1" tooltips="1" connect="1" arrows="1" fold="1" page="1" pageScale="1" pageWidth="827" pageHeight="1169" math="0" shadow="0">
            <root>
                <mxCell id="Jqr77EWIEIOgF8IM-Td--0"/>
                <mxCell id="Jqr77EWIEIOgF8IM-Td--1" parent="Jqr77EWIEIOgF8IM-Td--0"/>
                <mxCell id="PTVS4y-rH_oGhMOFuoqV-2" value="Book (title)" style="shape=table;startSize=30;container=1;collapsible=1;childLayout=tableLayout;fixedRows=1;rowLines=0;fontStyle=1;align=center;resizeLast=1;" parent="Jqr77EWIEIOgF8IM-Td--1" vertex="1">
                    <mxGeometry x="-448" y="320" width="180" height="190" as="geometry"/>
                </mxCell>
                <mxCell id="PTVS4y-rH_oGhMOFuoqV-3" value="" style="shape=partialRectangle;collapsible=0;dropTarget=0;pointerEvents=0;fillColor=none;top=0;left=0;bottom=1;right=0;points=[[0,0.5],[1,0.5]];portConstraint=eastwest;" parent="PTVS4y-rH_oGhMOFuoqV-2" vertex="1">
                    <mxGeometry y="30" width="180" height="30" as="geometry"/>
                </mxCell>
                <mxCell id="PTVS4y-rH_oGhMOFuoqV-4" value="PK" style="shape=partialRectangle;connectable=0;fillColor=none;top=0;left=0;bottom=0;right=0;fontStyle=1;overflow=hidden;" parent="PTVS4y-rH_oGhMOFuoqV-3" vertex="1">
                    <mxGeometry width="30" height="30" as="geometry">
                        <mxRectangle width="30" height="30" as="alternateBounds"/>
                    </mxGeometry>
                </mxCell>
                <mxCell id="PTVS4y-rH_oGhMOFuoqV-5" value="Book_ID: int" style="shape=partialRectangle;connectable=0;fillColor=none;top=0;left=0;bottom=0;right=0;align=left;spacingLeft=6;fontStyle=5;overflow=hidden;" parent="PTVS4y-rH_oGhMOFuoqV-3" vertex="1">
                    <mxGeometry x="30" width="150" height="30" as="geometry">
                        <mxRectangle width="150" height="30" as="alternateBounds"/>
                    </mxGeometry>
                </mxCell>
                <mxCell id="PTVS4y-rH_oGhMOFuoqV-6" value="" style="shape=partialRectangle;collapsible=0;dropTarget=0;pointerEvents=0;fillColor=none;top=0;left=0;bottom=0;right=0;points=[[0,0.5],[1,0.5]];portConstraint=eastwest;" parent="PTVS4y-rH_oGhMOFuoqV-2" vertex="1">
                    <mxGeometry y="60" width="180" height="30" as="geometry"/>
                </mxCell>
                <mxCell id="PTVS4y-rH_oGhMOFuoqV-7" value="" style="shape=partialRectangle;connectable=0;fillColor=none;top=0;left=0;bottom=0;right=0;editable=1;overflow=hidden;" parent="PTVS4y-rH_oGhMOFuoqV-6" vertex="1">
                    <mxGeometry width="30" height="30" as="geometry">
                        <mxRectangle width="30" height="30" as="alternateBounds"/>
                    </mxGeometry>
                </mxCell>
                <mxCell id="PTVS4y-rH_oGhMOFuoqV-8" value="Name: string   " style="shape=partialRectangle;connectable=0;fillColor=none;top=0;left=0;bottom=0;right=0;align=left;spacingLeft=6;overflow=hidden;" parent="PTVS4y-rH_oGhMOFuoqV-6" vertex="1">
                    <mxGeometry x="30" width="150" height="30" as="geometry">
                        <mxRectangle width="150" height="30" as="alternateBounds"/>
                    </mxGeometry>
                </mxCell>
                <mxCell id="PTVS4y-rH_oGhMOFuoqV-9" value="" style="shape=partialRectangle;collapsible=0;dropTarget=0;pointerEvents=0;fillColor=none;top=0;left=0;bottom=0;right=0;points=[[0,0.5],[1,0.5]];portConstraint=eastwest;" parent="PTVS4y-rH_oGhMOFuoqV-2" vertex="1">
                    <mxGeometry y="90" width="180" height="30" as="geometry"/>
                </mxCell>
                <mxCell id="PTVS4y-rH_oGhMOFuoqV-10" value="" style="shape=partialRectangle;connectable=0;fillColor=none;top=0;left=0;bottom=0;right=0;editable=1;overflow=hidden;" parent="PTVS4y-rH_oGhMOFuoqV-9" vertex="1">
                    <mxGeometry width="30" height="30" as="geometry">
                        <mxRectangle width="30" height="30" as="alternateBounds"/>
                    </mxGeometry>
                </mxCell>
                <mxCell id="PTVS4y-rH_oGhMOFuoqV-11" value="Description: string" style="shape=partialRectangle;connectable=0;fillColor=none;top=0;left=0;bottom=0;right=0;align=left;spacingLeft=6;overflow=hidden;" parent="PTVS4y-rH_oGhMOFuoqV-9" vertex="1">
                    <mxGeometry x="30" width="150" height="30" as="geometry">
                        <mxRectangle width="150" height="30" as="alternateBounds"/>
                    </mxGeometry>
                </mxCell>
                <mxCell id="PTVS4y-rH_oGhMOFuoqV-12" value="" style="shape=partialRectangle;collapsible=0;dropTarget=0;pointerEvents=0;fillColor=none;top=0;left=0;bottom=0;right=0;points=[[0,0.5],[1,0.5]];portConstraint=eastwest;" parent="PTVS4y-rH_oGhMOFuoqV-2" vertex="1">
                    <mxGeometry y="120" width="180" height="30" as="geometry"/>
                </mxCell>
                <mxCell id="PTVS4y-rH_oGhMOFuoqV-13" value="FK" style="shape=partialRectangle;connectable=0;fillColor=none;top=0;left=0;bottom=0;right=0;editable=1;overflow=hidden;fontStyle=1" parent="PTVS4y-rH_oGhMOFuoqV-12" vertex="1">
                    <mxGeometry width="30" height="30" as="geometry">
                        <mxRectangle width="30" height="30" as="alternateBounds"/>
                    </mxGeometry>
                </mxCell>
                <mxCell id="PTVS4y-rH_oGhMOFuoqV-14" value="Author_ID: int" style="shape=partialRectangle;connectable=0;fillColor=none;top=0;left=0;bottom=0;right=0;align=left;spacingLeft=6;overflow=hidden;fontStyle=1" parent="PTVS4y-rH_oGhMOFuoqV-12" vertex="1">
                    <mxGeometry x="30" width="150" height="30" as="geometry">
                        <mxRectangle width="150" height="30" as="alternateBounds"/>
                    </mxGeometry>
                </mxCell>
                <mxCell id="tvz78euWSoedRfBIxCv5-14" value="" style="shape=partialRectangle;collapsible=0;dropTarget=0;pointerEvents=0;fillColor=none;top=0;left=0;bottom=0;right=0;points=[[0,0.5],[1,0.5]];portConstraint=eastwest;" parent="PTVS4y-rH_oGhMOFuoqV-2" vertex="1">
                    <mxGeometry y="150" width="180" height="30" as="geometry"/>
                </mxCell>
                <mxCell id="tvz78euWSoedRfBIxCv5-15" value="FK" style="shape=partialRectangle;connectable=0;fillColor=none;top=0;left=0;bottom=0;right=0;editable=1;overflow=hidden;fontStyle=1" parent="tvz78euWSoedRfBIxCv5-14" vertex="1">
                    <mxGeometry width="30" height="30" as="geometry">
                        <mxRectangle width="30" height="30" as="alternateBounds"/>
                    </mxGeometry>
                </mxCell>
                <mxCell id="tvz78euWSoedRfBIxCv5-16" value="Room_ID: int" style="shape=partialRectangle;connectable=0;fillColor=none;top=0;left=0;bottom=0;right=0;align=left;spacingLeft=6;overflow=hidden;fontStyle=1" parent="tvz78euWSoedRfBIxCv5-14" vertex="1">
                    <mxGeometry x="30" width="150" height="30" as="geometry">
                        <mxRectangle width="150" height="30" as="alternateBounds"/>
                    </mxGeometry>
                </mxCell>
                <mxCell id="rajXfaUHEzDRaDxZsU94-0" value="Author" style="shape=table;startSize=30;container=1;collapsible=1;childLayout=tableLayout;fixedRows=1;rowLines=0;fontStyle=1;align=center;resizeLast=1;" parent="Jqr77EWIEIOgF8IM-Td--1" vertex="1">
                    <mxGeometry x="-180" y="320" width="180" height="130" as="geometry"/>
                </mxCell>
                <mxCell id="rajXfaUHEzDRaDxZsU94-1" value="" style="shape=partialRectangle;collapsible=0;dropTarget=0;pointerEvents=0;fillColor=none;top=0;left=0;bottom=1;right=0;points=[[0,0.5],[1,0.5]];portConstraint=eastwest;" parent="rajXfaUHEzDRaDxZsU94-0" vertex="1">
                    <mxGeometry y="30" width="180" height="30" as="geometry"/>
                </mxCell>
                <mxCell id="rajXfaUHEzDRaDxZsU94-2" value="PK" style="shape=partialRectangle;connectable=0;fillColor=none;top=0;left=0;bottom=0;right=0;fontStyle=1;overflow=hidden;" parent="rajXfaUHEzDRaDxZsU94-1" vertex="1">
                    <mxGeometry width="30" height="30" as="geometry">
                        <mxRectangle width="30" height="30" as="alternateBounds"/>
                    </mxGeometry>
                </mxCell>
                <mxCell id="rajXfaUHEzDRaDxZsU94-3" value="Author_ID: int" style="shape=partialRectangle;connectable=0;fillColor=none;top=0;left=0;bottom=0;right=0;align=left;spacingLeft=6;fontStyle=5;overflow=hidden;" parent="rajXfaUHEzDRaDxZsU94-1" vertex="1">
                    <mxGeometry x="30" width="150" height="30" as="geometry">
                        <mxRectangle width="150" height="30" as="alternateBounds"/>
                    </mxGeometry>
                </mxCell>
                <mxCell id="rajXfaUHEzDRaDxZsU94-4" value="" style="shape=partialRectangle;collapsible=0;dropTarget=0;pointerEvents=0;fillColor=none;top=0;left=0;bottom=0;right=0;points=[[0,0.5],[1,0.5]];portConstraint=eastwest;" parent="rajXfaUHEzDRaDxZsU94-0" vertex="1">
                    <mxGeometry y="60" width="180" height="30" as="geometry"/>
                </mxCell>
                <mxCell id="rajXfaUHEzDRaDxZsU94-5" value="" style="shape=partialRectangle;connectable=0;fillColor=none;top=0;left=0;bottom=0;right=0;editable=1;overflow=hidden;" parent="rajXfaUHEzDRaDxZsU94-4" vertex="1">
                    <mxGeometry width="30" height="30" as="geometry">
                        <mxRectangle width="30" height="30" as="alternateBounds"/>
                    </mxGeometry>
                </mxCell>
                <mxCell id="rajXfaUHEzDRaDxZsU94-6" value="FName: string" style="shape=partialRectangle;connectable=0;fillColor=none;top=0;left=0;bottom=0;right=0;align=left;spacingLeft=6;overflow=hidden;" parent="rajXfaUHEzDRaDxZsU94-4" vertex="1">
                    <mxGeometry x="30" width="150" height="30" as="geometry">
                        <mxRectangle width="150" height="30" as="alternateBounds"/>
                    </mxGeometry>
                </mxCell>
                <mxCell id="rajXfaUHEzDRaDxZsU94-7" value="" style="shape=partialRectangle;collapsible=0;dropTarget=0;pointerEvents=0;fillColor=none;top=0;left=0;bottom=0;right=0;points=[[0,0.5],[1,0.5]];portConstraint=eastwest;" parent="rajXfaUHEzDRaDxZsU94-0" vertex="1">
                    <mxGeometry y="90" width="180" height="30" as="geometry"/>
                </mxCell>
                <mxCell id="rajXfaUHEzDRaDxZsU94-8" value="" style="shape=partialRectangle;connectable=0;fillColor=none;top=0;left=0;bottom=0;right=0;editable=1;overflow=hidden;" parent="rajXfaUHEzDRaDxZsU94-7" vertex="1">
                    <mxGeometry width="30" height="30" as="geometry">
                        <mxRectangle width="30" height="30" as="alternateBounds"/>
                    </mxGeometry>
                </mxCell>
                <mxCell id="rajXfaUHEzDRaDxZsU94-9" value="LName: string" style="shape=partialRectangle;connectable=0;fillColor=none;top=0;left=0;bottom=0;right=0;align=left;spacingLeft=6;overflow=hidden;" parent="rajXfaUHEzDRaDxZsU94-7" vertex="1">
                    <mxGeometry x="30" width="150" height="30" as="geometry">
                        <mxRectangle width="150" height="30" as="alternateBounds"/>
                    </mxGeometry>
                </mxCell>
                <mxCell id="rajXfaUHEzDRaDxZsU94-15" value="Family members" style="shape=table;startSize=30;container=1;collapsible=1;childLayout=tableLayout;fixedRows=1;rowLines=0;fontStyle=1;align=center;resizeLast=1;" parent="Jqr77EWIEIOgF8IM-Td--1" vertex="1">
                    <mxGeometry x="-748" y="330" width="180" height="90" as="geometry"/>
                </mxCell>
                <mxCell id="rajXfaUHEzDRaDxZsU94-16" value="" style="shape=partialRectangle;collapsible=0;dropTarget=0;pointerEvents=0;fillColor=none;top=0;left=0;bottom=1;right=0;points=[[0,0.5],[1,0.5]];portConstraint=eastwest;" parent="rajXfaUHEzDRaDxZsU94-15" vertex="1">
                    <mxGeometry y="30" width="180" height="30" as="geometry"/>
                </mxCell>
                <mxCell id="rajXfaUHEzDRaDxZsU94-17" value="PK" style="shape=partialRectangle;connectable=0;fillColor=none;top=0;left=0;bottom=0;right=0;fontStyle=1;overflow=hidden;" parent="rajXfaUHEzDRaDxZsU94-16" vertex="1">
                    <mxGeometry width="30" height="30" as="geometry">
                        <mxRectangle width="30" height="30" as="alternateBounds"/>
                    </mxGeometry>
                </mxCell>
                <mxCell id="rajXfaUHEzDRaDxZsU94-18" value="FM_ID: int" style="shape=partialRectangle;connectable=0;fillColor=none;top=0;left=0;bottom=0;right=0;align=left;spacingLeft=6;fontStyle=5;overflow=hidden;" parent="rajXfaUHEzDRaDxZsU94-16" vertex="1">
                    <mxGeometry x="30" width="150" height="30" as="geometry">
                        <mxRectangle width="150" height="30" as="alternateBounds"/>
                    </mxGeometry>
                </mxCell>
                <mxCell id="rajXfaUHEzDRaDxZsU94-19" value="" style="shape=partialRectangle;collapsible=0;dropTarget=0;pointerEvents=0;fillColor=none;top=0;left=0;bottom=0;right=0;points=[[0,0.5],[1,0.5]];portConstraint=eastwest;" parent="rajXfaUHEzDRaDxZsU94-15" vertex="1">
                    <mxGeometry y="60" width="180" height="30" as="geometry"/>
                </mxCell>
                <mxCell id="rajXfaUHEzDRaDxZsU94-20" value="" style="shape=partialRectangle;connectable=0;fillColor=none;top=0;left=0;bottom=0;right=0;editable=1;overflow=hidden;" parent="rajXfaUHEzDRaDxZsU94-19" vertex="1">
                    <mxGeometry width="30" height="30" as="geometry">
                        <mxRectangle width="30" height="30" as="alternateBounds"/>
                    </mxGeometry>
                </mxCell>
                <mxCell id="rajXfaUHEzDRaDxZsU94-21" value="Name: string" style="shape=partialRectangle;connectable=0;fillColor=none;top=0;left=0;bottom=0;right=0;align=left;spacingLeft=6;overflow=hidden;" parent="rajXfaUHEzDRaDxZsU94-19" vertex="1">
                    <mxGeometry x="30" width="150" height="30" as="geometry">
                        <mxRectangle width="150" height="30" as="alternateBounds"/>
                    </mxGeometry>
                </mxCell>
                <mxCell id="rajXfaUHEzDRaDxZsU94-28" value="Reading status" style="shape=table;startSize=30;container=1;collapsible=1;childLayout=tableLayout;fixedRows=1;rowLines=0;fontStyle=1;align=center;resizeLast=1;" parent="Jqr77EWIEIOgF8IM-Td--1" vertex="1">
                    <mxGeometry x="-698" y="540" width="180" height="130" as="geometry"/>
                </mxCell>
                <mxCell id="rajXfaUHEzDRaDxZsU94-32" value="" style="shape=partialRectangle;collapsible=0;dropTarget=0;pointerEvents=0;fillColor=none;top=0;left=0;bottom=0;right=0;points=[[0,0.5],[1,0.5]];portConstraint=eastwest;" parent="rajXfaUHEzDRaDxZsU94-28" vertex="1">
                    <mxGeometry y="30" width="180" height="30" as="geometry"/>
                </mxCell>
                <mxCell id="rajXfaUHEzDRaDxZsU94-33" value="" style="shape=partialRectangle;connectable=0;fillColor=none;top=0;left=0;bottom=0;right=0;editable=1;overflow=hidden;" parent="rajXfaUHEzDRaDxZsU94-32" vertex="1">
                    <mxGeometry width="30" height="30" as="geometry">
                        <mxRectangle width="30" height="30" as="alternateBounds"/>
                    </mxGeometry>
                </mxCell>
                <mxCell id="rajXfaUHEzDRaDxZsU94-34" value="Read: boolean" style="shape=partialRectangle;connectable=0;fillColor=none;top=0;left=0;bottom=0;right=0;align=left;spacingLeft=6;overflow=hidden;" parent="rajXfaUHEzDRaDxZsU94-32" vertex="1">
                    <mxGeometry x="30" width="150" height="30" as="geometry">
                        <mxRectangle width="150" height="30" as="alternateBounds"/>
                    </mxGeometry>
                </mxCell>
                <mxCell id="rajXfaUHEzDRaDxZsU94-35" value="" style="shape=partialRectangle;collapsible=0;dropTarget=0;pointerEvents=0;fillColor=none;top=0;left=0;bottom=0;right=0;points=[[0,0.5],[1,0.5]];portConstraint=eastwest;" parent="rajXfaUHEzDRaDxZsU94-28" vertex="1">
                    <mxGeometry y="60" width="180" height="30" as="geometry"/>
                </mxCell>
                <mxCell id="rajXfaUHEzDRaDxZsU94-36" value="FK" style="shape=partialRectangle;connectable=0;fillColor=none;top=0;left=0;bottom=0;right=0;editable=1;overflow=hidden;fontStyle=1" parent="rajXfaUHEzDRaDxZsU94-35" vertex="1">
                    <mxGeometry width="30" height="30" as="geometry">
                        <mxRectangle width="30" height="30" as="alternateBounds"/>
                    </mxGeometry>
                </mxCell>
                <mxCell id="rajXfaUHEzDRaDxZsU94-37" value="FM_ID: int" style="shape=partialRectangle;connectable=0;fillColor=none;top=0;left=0;bottom=0;right=0;align=left;spacingLeft=6;overflow=hidden;fontStyle=1" parent="rajXfaUHEzDRaDxZsU94-35" vertex="1">
                    <mxGeometry x="30" width="150" height="30" as="geometry">
                        <mxRectangle width="150" height="30" as="alternateBounds"/>
                    </mxGeometry>
                </mxCell>
                <mxCell id="rajXfaUHEzDRaDxZsU94-38" value="" style="shape=partialRectangle;collapsible=0;dropTarget=0;pointerEvents=0;fillColor=none;top=0;left=0;bottom=0;right=0;points=[[0,0.5],[1,0.5]];portConstraint=eastwest;" parent="rajXfaUHEzDRaDxZsU94-28" vertex="1">
                    <mxGeometry y="90" width="180" height="30" as="geometry"/>
                </mxCell>
                <mxCell id="rajXfaUHEzDRaDxZsU94-39" value="FK" style="shape=partialRectangle;connectable=0;fillColor=none;top=0;left=0;bottom=0;right=0;editable=1;overflow=hidden;fontStyle=1" parent="rajXfaUHEzDRaDxZsU94-38" vertex="1">
                    <mxGeometry width="30" height="30" as="geometry">
                        <mxRectangle width="30" height="30" as="alternateBounds"/>
                    </mxGeometry>
                </mxCell>
                <mxCell id="rajXfaUHEzDRaDxZsU94-40" value="Book_ID: int" style="shape=partialRectangle;connectable=0;fillColor=none;top=0;left=0;bottom=0;right=0;align=left;spacingLeft=6;overflow=hidden;fontStyle=1" parent="rajXfaUHEzDRaDxZsU94-38" vertex="1">
                    <mxGeometry x="30" width="150" height="30" as="geometry">
                        <mxRectangle width="150" height="30" as="alternateBounds"/>
                    </mxGeometry>
                </mxCell>
                <mxCell id="rajXfaUHEzDRaDxZsU94-41" value="" style="edgeStyle=none;html=1;startArrow=ERmany;startFill=0;endArrow=ERone;endFill=0;entryX=-0.016;entryY=0.079;entryDx=0;entryDy=0;entryPerimeter=0;exitX=1.016;exitY=0.044;exitDx=0;exitDy=0;exitPerimeter=0;" parent="Jqr77EWIEIOgF8IM-Td--1" source="PTVS4y-rH_oGhMOFuoqV-2" target="rajXfaUHEzDRaDxZsU94-0" edge="1">
                    <mxGeometry relative="1" as="geometry">
                        <mxPoint x="-190" y="330" as="targetPoint"/>
                        <mxPoint x="-270" y="330" as="sourcePoint"/>
                        <Array as="points"/>
                    </mxGeometry>
                </mxCell>
                <mxCell id="rajXfaUHEzDRaDxZsU94-42" style="edgeStyle=none;html=1;exitX=0;exitY=0.5;exitDx=0;exitDy=0;startArrow=none;startFill=0;endArrow=ERmany;endFill=0;entryX=1;entryY=0.5;entryDx=0;entryDy=0;" parent="Jqr77EWIEIOgF8IM-Td--1" source="PTVS4y-rH_oGhMOFuoqV-3" target="rajXfaUHEzDRaDxZsU94-38" edge="1">
                    <mxGeometry relative="1" as="geometry">
                        <Array as="points">
                            <mxPoint x="-468" y="365"/>
                            <mxPoint x="-468" y="510"/>
                            <mxPoint x="-468" y="645"/>
                        </Array>
                        <mxPoint x="-358" y="650" as="targetPoint"/>
                    </mxGeometry>
                </mxCell>
                <mxCell id="rajXfaUHEzDRaDxZsU94-43" style="edgeStyle=none;html=1;exitX=0;exitY=0.5;exitDx=0;exitDy=0;startArrow=none;startFill=0;endArrow=ERmany;endFill=0;entryX=0;entryY=0.5;entryDx=0;entryDy=0;" parent="Jqr77EWIEIOgF8IM-Td--1" source="rajXfaUHEzDRaDxZsU94-16" target="rajXfaUHEzDRaDxZsU94-35" edge="1">
                    <mxGeometry relative="1" as="geometry">
                        <Array as="points">
                            <mxPoint x="-808" y="375"/>
                            <mxPoint x="-808" y="615"/>
                        </Array>
                        <mxPoint x="-588" y="615" as="targetPoint"/>
                    </mxGeometry>
                </mxCell>
                <mxCell id="Bnnzdi3UZeNYf7mvuDV8-3" style="edgeStyle=none;html=1;exitX=0;exitY=0.25;exitDx=0;exitDy=0;startArrow=none;startFill=0;endArrow=ERmany;endFill=0;entryX=1;entryY=0.5;entryDx=0;entryDy=0;" parent="Jqr77EWIEIOgF8IM-Td--1" source="Rh4NaVl89NfrpIx3z03y-0" target="kxYBbshYatQCGv_tt6oz-10" edge="1">
                    <mxGeometry relative="1" as="geometry">
                        <Array as="points">
                            <mxPoint x="-480" y="140"/>
                            <mxPoint x="-480" y="235"/>
                        </Array>
                        <mxPoint x="-530" y="226" as="targetPoint"/>
                    </mxGeometry>
                </mxCell>
                <mxCell id="Rh4NaVl89NfrpIx3z03y-0" value="Book owner" style="shape=table;startSize=30;container=1;collapsible=1;childLayout=tableLayout;fixedRows=1;rowLines=0;fontStyle=1;align=center;resizeLast=1;" parent="Jqr77EWIEIOgF8IM-Td--1" vertex="1">
                    <mxGeometry x="-448" y="100" width="180" height="160" as="geometry"/>
                </mxCell>
                <mxCell id="Rh4NaVl89NfrpIx3z03y-1" value="" style="shape=partialRectangle;collapsible=0;dropTarget=0;pointerEvents=0;fillColor=none;top=0;left=0;bottom=1;right=0;points=[[0,0.5],[1,0.5]];portConstraint=eastwest;" parent="Rh4NaVl89NfrpIx3z03y-0" vertex="1">
                    <mxGeometry y="30" width="180" height="30" as="geometry"/>
                </mxCell>
                <mxCell id="Rh4NaVl89NfrpIx3z03y-2" value="PK" style="shape=partialRectangle;connectable=0;fillColor=none;top=0;left=0;bottom=0;right=0;fontStyle=1;overflow=hidden;" parent="Rh4NaVl89NfrpIx3z03y-1" vertex="1">
                    <mxGeometry width="30" height="30" as="geometry">
                        <mxRectangle width="30" height="30" as="alternateBounds"/>
                    </mxGeometry>
                </mxCell>
                <mxCell id="Rh4NaVl89NfrpIx3z03y-3" value="BO_ID: int" style="shape=partialRectangle;connectable=0;fillColor=none;top=0;left=0;bottom=0;right=0;align=left;spacingLeft=6;fontStyle=5;overflow=hidden;" parent="Rh4NaVl89NfrpIx3z03y-1" vertex="1">
                    <mxGeometry x="30" width="150" height="30" as="geometry">
                        <mxRectangle width="150" height="30" as="alternateBounds"/>
                    </mxGeometry>
                </mxCell>
                <mxCell id="Rh4NaVl89NfrpIx3z03y-4" value="" style="shape=partialRectangle;collapsible=0;dropTarget=0;pointerEvents=0;fillColor=none;top=0;left=0;bottom=0;right=0;points=[[0,0.5],[1,0.5]];portConstraint=eastwest;" parent="Rh4NaVl89NfrpIx3z03y-0" vertex="1">
                    <mxGeometry y="60" width="180" height="30" as="geometry"/>
                </mxCell>
                <mxCell id="Rh4NaVl89NfrpIx3z03y-5" value="" style="shape=partialRectangle;connectable=0;fillColor=none;top=0;left=0;bottom=0;right=0;editable=1;overflow=hidden;" parent="Rh4NaVl89NfrpIx3z03y-4" vertex="1">
                    <mxGeometry width="30" height="30" as="geometry">
                        <mxRectangle width="30" height="30" as="alternateBounds"/>
                    </mxGeometry>
                </mxCell>
                <mxCell id="Rh4NaVl89NfrpIx3z03y-6" value="FName: string" style="shape=partialRectangle;connectable=0;fillColor=none;top=0;left=0;bottom=0;right=0;align=left;spacingLeft=6;overflow=hidden;" parent="Rh4NaVl89NfrpIx3z03y-4" vertex="1">
                    <mxGeometry x="30" width="150" height="30" as="geometry">
                        <mxRectangle width="150" height="30" as="alternateBounds"/>
                    </mxGeometry>
                </mxCell>
                <mxCell id="Rh4NaVl89NfrpIx3z03y-7" value="" style="shape=partialRectangle;collapsible=0;dropTarget=0;pointerEvents=0;fillColor=none;top=0;left=0;bottom=0;right=0;points=[[0,0.5],[1,0.5]];portConstraint=eastwest;" parent="Rh4NaVl89NfrpIx3z03y-0" vertex="1">
                    <mxGeometry y="90" width="180" height="30" as="geometry"/>
                </mxCell>
                <mxCell id="Rh4NaVl89NfrpIx3z03y-8" value="" style="shape=partialRectangle;connectable=0;fillColor=none;top=0;left=0;bottom=0;right=0;editable=1;overflow=hidden;" parent="Rh4NaVl89NfrpIx3z03y-7" vertex="1">
                    <mxGeometry width="30" height="30" as="geometry">
                        <mxRectangle width="30" height="30" as="alternateBounds"/>
                    </mxGeometry>
                </mxCell>
                <mxCell id="Rh4NaVl89NfrpIx3z03y-9" value="LName: string" style="shape=partialRectangle;connectable=0;fillColor=none;top=0;left=0;bottom=0;right=0;align=left;spacingLeft=6;overflow=hidden;" parent="Rh4NaVl89NfrpIx3z03y-7" vertex="1">
                    <mxGeometry x="30" width="150" height="30" as="geometry">
                        <mxRectangle width="150" height="30" as="alternateBounds"/>
                    </mxGeometry>
                </mxCell>
                <mxCell id="Rh4NaVl89NfrpIx3z03y-10" value="" style="shape=partialRectangle;collapsible=0;dropTarget=0;pointerEvents=0;fillColor=none;top=0;left=0;bottom=0;right=0;points=[[0,0.5],[1,0.5]];portConstraint=eastwest;" parent="Rh4NaVl89NfrpIx3z03y-0" vertex="1">
                    <mxGeometry y="120" width="180" height="30" as="geometry"/>
                </mxCell>
                <mxCell id="Rh4NaVl89NfrpIx3z03y-11" value="" style="shape=partialRectangle;connectable=0;fillColor=none;top=0;left=0;bottom=0;right=0;editable=1;overflow=hidden;" parent="Rh4NaVl89NfrpIx3z03y-10" vertex="1">
                    <mxGeometry width="30" height="30" as="geometry">
                        <mxRectangle width="30" height="30" as="alternateBounds"/>
                    </mxGeometry>
                </mxCell>
                <mxCell id="Rh4NaVl89NfrpIx3z03y-12" value="Phone Number: int" style="shape=partialRectangle;connectable=0;fillColor=none;top=0;left=0;bottom=0;right=0;align=left;spacingLeft=6;overflow=hidden;" parent="Rh4NaVl89NfrpIx3z03y-10" vertex="1">
                    <mxGeometry x="30" width="150" height="30" as="geometry">
                        <mxRectangle width="150" height="30" as="alternateBounds"/>
                    </mxGeometry>
                </mxCell>
                <mxCell id="Bnnzdi3UZeNYf7mvuDV8-4" style="edgeStyle=none;html=1;exitX=1;exitY=0.5;exitDx=0;exitDy=0;entryX=0.005;entryY=0.2;entryDx=0;entryDy=0;entryPerimeter=0;startArrow=ERmany;startFill=0;endArrow=none;endFill=0;" parent="Jqr77EWIEIOgF8IM-Td--1" source="kxYBbshYatQCGv_tt6oz-13" target="PTVS4y-rH_oGhMOFuoqV-3" edge="1">
                    <mxGeometry relative="1" as="geometry">
                        <Array as="points">
                            <mxPoint x="-500" y="265"/>
                            <mxPoint x="-500" y="356"/>
                        </Array>
                        <mxPoint x="-518" y="195" as="sourcePoint"/>
                    </mxGeometry>
                </mxCell>
                <mxCell id="tvz78euWSoedRfBIxCv5-13" value="" style="edgeStyle=none;html=1;startArrow=ERone;startFill=0;endArrow=ERmany;endFill=0;entryX=0.5;entryY=1;entryDx=0;entryDy=0;" parent="Jqr77EWIEIOgF8IM-Td--1" source="tvz78euWSoedRfBIxCv5-0" target="PTVS4y-rH_oGhMOFuoqV-2" edge="1">
                    <mxGeometry relative="1" as="geometry">
                        <mxPoint x="-358" y="540" as="targetPoint"/>
                    </mxGeometry>
                </mxCell>
                <mxCell id="tvz78euWSoedRfBIxCv5-0" value="Room" style="shape=table;startSize=30;container=1;collapsible=1;childLayout=tableLayout;fixedRows=1;rowLines=0;fontStyle=1;align=center;resizeLast=1;" parent="Jqr77EWIEIOgF8IM-Td--1" vertex="1">
                    <mxGeometry x="-448" y="600" width="180" height="130" as="geometry"/>
                </mxCell>
                <mxCell id="tvz78euWSoedRfBIxCv5-1" value="" style="shape=partialRectangle;collapsible=0;dropTarget=0;pointerEvents=0;fillColor=none;top=0;left=0;bottom=1;right=0;points=[[0,0.5],[1,0.5]];portConstraint=eastwest;" parent="tvz78euWSoedRfBIxCv5-0" vertex="1">
                    <mxGeometry y="30" width="180" height="30" as="geometry"/>
                </mxCell>
                <mxCell id="tvz78euWSoedRfBIxCv5-2" value="PK" style="shape=partialRectangle;connectable=0;fillColor=none;top=0;left=0;bottom=0;right=0;fontStyle=1;overflow=hidden;" parent="tvz78euWSoedRfBIxCv5-1" vertex="1">
                    <mxGeometry width="30" height="30" as="geometry">
                        <mxRectangle width="30" height="30" as="alternateBounds"/>
                    </mxGeometry>
                </mxCell>
                <mxCell id="tvz78euWSoedRfBIxCv5-3" value="Room_ID: int" style="shape=partialRectangle;connectable=0;fillColor=none;top=0;left=0;bottom=0;right=0;align=left;spacingLeft=6;fontStyle=5;overflow=hidden;" parent="tvz78euWSoedRfBIxCv5-1" vertex="1">
                    <mxGeometry x="30" width="150" height="30" as="geometry">
                        <mxRectangle width="150" height="30" as="alternateBounds"/>
                    </mxGeometry>
                </mxCell>
                <mxCell id="tvz78euWSoedRfBIxCv5-4" value="" style="shape=partialRectangle;collapsible=0;dropTarget=0;pointerEvents=0;fillColor=none;top=0;left=0;bottom=0;right=0;points=[[0,0.5],[1,0.5]];portConstraint=eastwest;" parent="tvz78euWSoedRfBIxCv5-0" vertex="1">
                    <mxGeometry y="60" width="180" height="30" as="geometry"/>
                </mxCell>
                <mxCell id="tvz78euWSoedRfBIxCv5-5" value="" style="shape=partialRectangle;connectable=0;fillColor=none;top=0;left=0;bottom=0;right=0;editable=1;overflow=hidden;" parent="tvz78euWSoedRfBIxCv5-4" vertex="1">
                    <mxGeometry width="30" height="30" as="geometry">
                        <mxRectangle width="30" height="30" as="alternateBounds"/>
                    </mxGeometry>
                </mxCell>
                <mxCell id="tvz78euWSoedRfBIxCv5-6" value="Floor: int" style="shape=partialRectangle;connectable=0;fillColor=none;top=0;left=0;bottom=0;right=0;align=left;spacingLeft=6;overflow=hidden;" parent="tvz78euWSoedRfBIxCv5-4" vertex="1">
                    <mxGeometry x="30" width="150" height="30" as="geometry">
                        <mxRectangle width="150" height="30" as="alternateBounds"/>
                    </mxGeometry>
                </mxCell>
                <mxCell id="n8dYX4Qt6HEOwXjNtkK6-0" value="" style="shape=partialRectangle;collapsible=0;dropTarget=0;pointerEvents=0;fillColor=none;top=0;left=0;bottom=0;right=0;points=[[0,0.5],[1,0.5]];portConstraint=eastwest;" parent="tvz78euWSoedRfBIxCv5-0" vertex="1">
                    <mxGeometry y="90" width="180" height="30" as="geometry"/>
                </mxCell>
                <mxCell id="n8dYX4Qt6HEOwXjNtkK6-1" value="" style="shape=partialRectangle;connectable=0;fillColor=none;top=0;left=0;bottom=0;right=0;editable=1;overflow=hidden;" parent="n8dYX4Qt6HEOwXjNtkK6-0" vertex="1">
                    <mxGeometry width="30" height="30" as="geometry">
                        <mxRectangle width="30" height="30" as="alternateBounds"/>
                    </mxGeometry>
                </mxCell>
                <mxCell id="n8dYX4Qt6HEOwXjNtkK6-2" value="Room Name: string" style="shape=partialRectangle;connectable=0;fillColor=none;top=0;left=0;bottom=0;right=0;align=left;spacingLeft=6;overflow=hidden;" parent="n8dYX4Qt6HEOwXjNtkK6-0" vertex="1">
                    <mxGeometry x="30" width="150" height="30" as="geometry">
                        <mxRectangle width="150" height="30" as="alternateBounds"/>
                    </mxGeometry>
                </mxCell>
                <mxCell id="kxYBbshYatQCGv_tt6oz-0" value="Borrow period" style="shape=table;startSize=30;container=1;collapsible=1;childLayout=tableLayout;fixedRows=1;rowLines=0;fontStyle=1;align=center;resizeLast=1;" parent="Jqr77EWIEIOgF8IM-Td--1" vertex="1">
                    <mxGeometry x="-710" y="100" width="180" height="190" as="geometry"/>
                </mxCell>
                <mxCell id="kxYBbshYatQCGv_tt6oz-1" value="" style="shape=partialRectangle;collapsible=0;dropTarget=0;pointerEvents=0;fillColor=none;top=0;left=0;bottom=1;right=0;points=[[0,0.5],[1,0.5]];portConstraint=eastwest;" parent="kxYBbshYatQCGv_tt6oz-0" vertex="1">
                    <mxGeometry y="30" width="180" height="30" as="geometry"/>
                </mxCell>
                <mxCell id="kxYBbshYatQCGv_tt6oz-2" value="PK" style="shape=partialRectangle;connectable=0;fillColor=none;top=0;left=0;bottom=0;right=0;fontStyle=1;overflow=hidden;" parent="kxYBbshYatQCGv_tt6oz-1" vertex="1">
                    <mxGeometry width="30" height="30" as="geometry">
                        <mxRectangle width="30" height="30" as="alternateBounds"/>
                    </mxGeometry>
                </mxCell>
                <mxCell id="kxYBbshYatQCGv_tt6oz-3" value="Borrow_ID: num" style="shape=partialRectangle;connectable=0;fillColor=none;top=0;left=0;bottom=0;right=0;align=left;spacingLeft=6;fontStyle=5;overflow=hidden;" parent="kxYBbshYatQCGv_tt6oz-1" vertex="1">
                    <mxGeometry x="30" width="150" height="30" as="geometry">
                        <mxRectangle width="150" height="30" as="alternateBounds"/>
                    </mxGeometry>
                </mxCell>
                <mxCell id="kxYBbshYatQCGv_tt6oz-4" value="" style="shape=partialRectangle;collapsible=0;dropTarget=0;pointerEvents=0;fillColor=none;top=0;left=0;bottom=0;right=0;points=[[0,0.5],[1,0.5]];portConstraint=eastwest;" parent="kxYBbshYatQCGv_tt6oz-0" vertex="1">
                    <mxGeometry y="60" width="180" height="30" as="geometry"/>
                </mxCell>
                <mxCell id="kxYBbshYatQCGv_tt6oz-5" value="" style="shape=partialRectangle;connectable=0;fillColor=none;top=0;left=0;bottom=0;right=0;editable=1;overflow=hidden;" parent="kxYBbshYatQCGv_tt6oz-4" vertex="1">
                    <mxGeometry width="30" height="30" as="geometry">
                        <mxRectangle width="30" height="30" as="alternateBounds"/>
                    </mxGeometry>
                </mxCell>
                <mxCell id="kxYBbshYatQCGv_tt6oz-6" value="Borrow start date: string" style="shape=partialRectangle;connectable=0;fillColor=none;top=0;left=0;bottom=0;right=0;align=left;spacingLeft=6;overflow=hidden;" parent="kxYBbshYatQCGv_tt6oz-4" vertex="1">
                    <mxGeometry x="30" width="150" height="30" as="geometry">
                        <mxRectangle width="150" height="30" as="alternateBounds"/>
                    </mxGeometry>
                </mxCell>
                <mxCell id="kxYBbshYatQCGv_tt6oz-7" value="" style="shape=partialRectangle;collapsible=0;dropTarget=0;pointerEvents=0;fillColor=none;top=0;left=0;bottom=0;right=0;points=[[0,0.5],[1,0.5]];portConstraint=eastwest;" parent="kxYBbshYatQCGv_tt6oz-0" vertex="1">
                    <mxGeometry y="90" width="180" height="30" as="geometry"/>
                </mxCell>
                <mxCell id="kxYBbshYatQCGv_tt6oz-8" value="" style="shape=partialRectangle;connectable=0;fillColor=none;top=0;left=0;bottom=0;right=0;editable=1;overflow=hidden;" parent="kxYBbshYatQCGv_tt6oz-7" vertex="1">
                    <mxGeometry width="30" height="30" as="geometry">
                        <mxRectangle width="30" height="30" as="alternateBounds"/>
                    </mxGeometry>
                </mxCell>
                <mxCell id="kxYBbshYatQCGv_tt6oz-9" value="Borrow end date: string" style="shape=partialRectangle;connectable=0;fillColor=none;top=0;left=0;bottom=0;right=0;align=left;spacingLeft=6;overflow=hidden;" parent="kxYBbshYatQCGv_tt6oz-7" vertex="1">
                    <mxGeometry x="30" width="150" height="30" as="geometry">
                        <mxRectangle width="150" height="30" as="alternateBounds"/>
                    </mxGeometry>
                </mxCell>
                <mxCell id="kxYBbshYatQCGv_tt6oz-10" value="" style="shape=partialRectangle;collapsible=0;dropTarget=0;pointerEvents=0;fillColor=none;top=0;left=0;bottom=0;right=0;points=[[0,0.5],[1,0.5]];portConstraint=eastwest;" parent="kxYBbshYatQCGv_tt6oz-0" vertex="1">
                    <mxGeometry y="120" width="180" height="30" as="geometry"/>
                </mxCell>
                <mxCell id="kxYBbshYatQCGv_tt6oz-11" value="FK" style="shape=partialRectangle;connectable=0;fillColor=none;top=0;left=0;bottom=0;right=0;editable=1;overflow=hidden;fontStyle=1" parent="kxYBbshYatQCGv_tt6oz-10" vertex="1">
                    <mxGeometry width="30" height="30" as="geometry">
                        <mxRectangle width="30" height="30" as="alternateBounds"/>
                    </mxGeometry>
                </mxCell>
                <mxCell id="kxYBbshYatQCGv_tt6oz-12" value="BO_ID: int" style="shape=partialRectangle;connectable=0;fillColor=none;top=0;left=0;bottom=0;right=0;align=left;spacingLeft=6;overflow=hidden;fontStyle=1" parent="kxYBbshYatQCGv_tt6oz-10" vertex="1">
                    <mxGeometry x="30" width="150" height="30" as="geometry">
                        <mxRectangle width="150" height="30" as="alternateBounds"/>
                    </mxGeometry>
                </mxCell>
                <mxCell id="kxYBbshYatQCGv_tt6oz-13" value="" style="shape=partialRectangle;collapsible=0;dropTarget=0;pointerEvents=0;fillColor=none;top=0;left=0;bottom=0;right=0;points=[[0,0.5],[1,0.5]];portConstraint=eastwest;" parent="kxYBbshYatQCGv_tt6oz-0" vertex="1">
                    <mxGeometry y="150" width="180" height="30" as="geometry"/>
                </mxCell>
                <mxCell id="kxYBbshYatQCGv_tt6oz-14" value="FK" style="shape=partialRectangle;connectable=0;fillColor=none;top=0;left=0;bottom=0;right=0;editable=1;overflow=hidden;fontStyle=1" parent="kxYBbshYatQCGv_tt6oz-13" vertex="1">
                    <mxGeometry width="30" height="30" as="geometry">
                        <mxRectangle width="30" height="30" as="alternateBounds"/>
                    </mxGeometry>
                </mxCell>
                <mxCell id="kxYBbshYatQCGv_tt6oz-15" value="Book_ID: int" style="shape=partialRectangle;connectable=0;fillColor=none;top=0;left=0;bottom=0;right=0;align=left;spacingLeft=6;overflow=hidden;fontStyle=1" parent="kxYBbshYatQCGv_tt6oz-13" vertex="1">
                    <mxGeometry x="30" width="150" height="30" as="geometry">
                        <mxRectangle width="150" height="30" as="alternateBounds"/>
                    </mxGeometry>
                </mxCell>
            </root>
        </mxGraphModel>
    </diagram>
</mxfile>